<?xml version="1.0" encoding="UTF-8" standalone="no"?>
<!-- Created with Inkscape (http://www.inkscape.org/) -->

<svg
   version="1.1"
   id="svg1"
   width="2447.3767"
   height="685.47437"
   viewBox="0 0 2447.3767 685.47437"
   sodipodi:docname="institutoInvestigacionesBiomedicas.svg"
   inkscape:version="1.4.2 (f4327f4, 2025-05-13)"
   xmlns:inkscape="http://www.inkscape.org/namespaces/inkscape"
   xmlns:sodipodi="http://sodipodi.sourceforge.net/DTD/sodipodi-0.dtd"
   xmlns="http://www.w3.org/2000/svg"
   xmlns:svg="http://www.w3.org/2000/svg">
  <defs
     id="defs1" />
  <sodipodi:namedview
     id="namedview1"
     pagecolor="#505050"
     bordercolor="#ffffff"
     borderopacity="1"
     inkscape:showpageshadow="0"
     inkscape:pageopacity="0"
     inkscape:pagecheckerboard="1"
     inkscape:deskcolor="#505050"
     inkscape:zoom="0.24488978"
     inkscape:cx="1227.0827"
     inkscape:cy="626.8126"
     inkscape:window-width="1366"
     inkscape:window-height="705"
     inkscape:window-x="-8"
     inkscape:window-y="-8"
     inkscape:window-maximized="1"
     inkscape:current-layer="g1" />
  <g
     inkscape:groupmode="layer"
     inkscape:label="Image"
     id="g1"
     transform="translate(-79.326951,627.54571)">
    <path
       style="fill:#1A6BB5"
       d="m 523.25205,57.365643 c -53.11659,-4.09753 -97.60867,-7.48786 -109.38703,-8.33538 -21.00646,-1.51153 -55.40112,0.61638 -83.61297,5.17292 -17.01353,2.74788 -24.19218,1.78972 -30,-4.00421 -2.52678,-2.52074 -15.14589,-7.8873 -21.74517,-9.24761 -5.06384,-1.04382 -11.99879,-1.05432 -36.66226,-0.0555 -31.5032,1.27582 -74.6157,4.00105 -106.45813,6.72944 -10.10105,0.8655 -20.22605,1.27463 -22.5,0.90917 -5.52702,-0.88828 -8.63444,-2.99193 -8.63444,-5.84529 0,-2.98537 4.40736,-9.05512 10.41473,-14.34302 4.60952,-4.05746 5.7588,-4.52712 14.16906,-5.79026 6.03414,-0.90627 9.79354,-3.66195 13.25906,-9.71905 6.51127,-11.3805095 6.6597,-11.4240895 63.87043,-18.7518295 28.35199,-3.63142 37.24719,-5.0203005 42.62801,-6.6558705 2.81818,-0.85662 4.32378,-5.69583 6.02554,-19.36696 2.45646,-19.7341 3.62141,-39.69537 4.63964,-79.500003 0.52056,-20.35 1.49605,-51.625 2.16776,-69.5 1.69055,-44.98805 1.72032,-138.82008 0.0477,-150.18144 -2.06911,-14.05413 -2.29756,-14.43049 -9.53434,-15.70767 -3.40315,-0.6006 -10.35569,-1.52415 -15.45009,-2.05232 -5.54657,-0.57506 -10.47607,-1.67717 -12.28742,-2.74716 -3.95705,-2.33749 -9.4751,-10.93852 -16.6975,-26.02656 l -5.84719,-12.21514 -3.95267,5.04291 c -4.22739,5.39341 -6.14928,6.67949 -14.84177,9.93177 -5.21218,1.95013 -6.36477,2.01181 -18.83145,1.00774 -7.30375,-0.58824 -17.1045,-1.31918 -21.7795,-1.6243 -4.675,-0.30513 -9.50432,-0.75773 -10.73182,-1.00579 -2.76151,-0.55806 -4.6507,-4.12409 -6.31599,-11.92204 -0.70473,-3.3 -1.94781,-7.35 -2.7624,-9 -2.45109,-4.96484 -9.52044,-13.50596 -18.60178,-22.47447 -9.386948,-9.27033 -10.768609,-11.9545 -10.854635,-21.08739 -0.04641,-4.92731 -0.456736,-6.26433 -2.505833,-8.16513 -1.347682,-1.25016 -4.263145,-4.9285 -6.478807,-8.17411 -7.561839,-11.07692 -5.821387,-18.5989 4.303459,-18.5989 5.459618,0 9.092632,2.87878 11.025998,8.73694 1.049908,3.18124 1.283138,3.35866 2.185148,1.66221 3.79631,-7.13985 9.75763,-8.53979 14.14776,-3.32242 5.18508,6.16211 1.83029,16.03491 -7.7983,22.94964 -2.53704,1.82197 -4.61112,4.02389 -4.60907,4.89315 0.008,3.20671 4.08053,8.09632 11.22045,13.47025 4.03246,3.03508 8.36506,6.91596 9.62801,8.62418 1.26294,1.70822 4.85035,4.71335 7.97203,6.67806 7.84245,4.93585 10.95475,8.00916 13.84183,13.66843 2.26538,4.44059 2.72606,4.81114 5.33315,4.28972 9.33523,-1.86705 20.26795,-11.74973 21.54716,-19.47766 0.33436,-2.01987 1.0232,-4.97715 1.53078,-6.57172 1.49057,-4.68273 1.11093,-10.12294 -0.82714,-11.85277 -0.9625,-0.85907 -3.55,-2.06333 -5.75,-2.67613 -5.1477,-1.43385 -7.32586,-2.72367 -12.4155,-7.35198 -4.36273,-3.96727 -6.40086,-7.73192 -5.48213,-10.12608 0.30044,-0.78295 -0.85108,-5.49324 -2.55894,-10.46731 -3.72031,-10.83527 -4.30365,-19.07651 -1.56451,-22.10322 1.31478,-1.45282 3.08399,-2.02329 6.27485,-2.02329 3.68176,0 4.94132,0.53259 7.34502,3.10576 2.29028,2.45174 2.90121,4.03109 2.90121,7.5 0,2.41683 0.25502,4.39424 0.56672,4.39424 0.3117,0 2.04167,-1.125 3.84439,-2.5 5.04526,-3.8482 9.63053,-3.25395 12.12588,1.57152 3.62596,7.01185 0.55068,13.33314 -8.63021,17.73955 l -6.23213,2.99113 5.35702,1.8489 c 6.08626,2.10059 16.93651,11.44366 18.9584,16.32494 0.74542,1.79958 1.0812,5.94143 0.8511,10.49809 -0.32699,6.47534 -0.15013,7.52587 1.26695,7.52587 0.90585,0 2.06558,-0.5625 2.57718,-1.25 1.68999,-2.27103 -0.29597,-25.44186 -3.09653,-36.12822 -3.5121,-13.40148 -3.40652,-19.38943 0.48704,-27.62178 5.38468,-11.38512 13.40502,-22.45836 18.7515,-25.88918 5.51761,-3.54064 7.33145,-3.80921 9.70386,-1.43679 2.50754,2.50754 1.30054,7.19007 -3.94258,15.2951 -7.93275,12.26278 -9.0119,14.89207 -9.04222,22.03087 -0.0228,5.36937 0.5598,7.7176 3.34939,13.5 1.85734,3.85 4.85609,10.825 6.66389,15.5 l 3.2869,8.5 3.77021,-0.31742 c 2.07361,-0.17458 5.17566,-0.90466 6.89346,-1.6224 3.06955,-1.28254 3.11332,-1.39747 2.54516,-6.68258 -0.31795,-2.95768 -0.21375,-7.4026 0.23155,-9.8776 1.68128,-9.34459 1.89756,-19.58032 0.75596,-35.77805 -1.6959,-24.06269 -3.33514,-31.49283 -10.27226,-46.56066 -2.56097,-5.56259 -2.92548,-7.14871 -1.95339,-8.5 0.6573,-0.91371 1.90423,-3.01129 2.77096,-4.66129 0.86673,-1.65 2.61037,-3.76808 3.87474,-4.70685 l 2.29887,-1.70685 7.50421,12.70685 c 13.08491,22.15665 12.70555,20.86216 15.29952,52.20685 0.93308,11.275 2.0247,20.86465 2.42582,21.31034 1.26617,1.40683 6.21559,-5.41272 5.6063,-7.72462 -1.3959,-5.29657 -1.82075,-33.50769 -0.6338,-42.08572 3.33306,-24.08788 7.00501,-35.99013 14.71838,-47.70808 5.97878,-9.08279 12.03334,-14.19601 23.3008,-19.67806 l 9.48304,-4.61386 13.51696,0.0311 c 7.43433,0.0171 17.59348,0.41564 22.57588,0.88565 8.15255,0.76904 10.06616,0.59507 19.12581,-1.73879 12.61475,-3.24967 19.82879,-6.42846 24.31527,-10.71423 1.925,-1.83888 7.325,-6.57034 12,-10.51434 4.675,-3.94401 9.61732,-8.38666 10.98294,-9.87256 1.36562,-1.4859 3.93885,-3.60143 5.71829,-4.70119 3.11147,-1.92299 3.37408,-1.93373 6.8582,-0.2804 4.39453,2.08534 7.025,6.9299 5.99945,11.04925 -0.93236,3.74506 -21.42897,24.07927 -28.05888,27.83657 -2.75,1.55848 -7.025,4.76711 -9.5,7.13029 -2.475,2.36318 -7.81924,5.83077 -11.87608,7.70574 -7.73448,3.57469 -7.77901,3.83487 -1.06196,6.20478 3.96562,1.39916 4.7353,1.31404 15.52423,-1.71686 l 11.35173,-3.189 1.07608,-5.558 c 3.25826,-16.82909 10.06919,-23.34409 17.35016,-16.59631 5.19598,4.81548 5.47804,11.88403 0.67809,16.99334 l -2.04096,2.1725 6.03496,-0.43653 c 7.74924,-0.56053 9.96375,1.11549 9.96375,7.54091 0,3.58892 -0.57037,4.99231 -3.0277,7.44964 -2.95768,2.95768 -3.20633,3.01644 -10.75,2.54045 -4.24727,-0.26799 -8.67283,-0.80136 -9.83459,-1.18525 -1.62781,-0.53789 -2.23788,-0.21771 -2.65987,1.39601 -0.6974,2.66684 -5.84129,4.82142 -16.15488,6.76665 -10.21223,1.92611 -14.24024,1.41897 -30.11605,-3.79168 -13.89273,-4.55978 -16.51921,-4.83349 -29.43068,-3.06704 -4.66057,0.63762 -10.40701,1.15931 -12.76987,1.15931 -7.11332,0 -13.94853,5.21794 -16.26159,12.41396 -1.389,4.3212 -0.8296,18.68154 1.2207,31.33649 1.3813,8.52573 -0.0353,23.88797 -2.33728,25.346 -0.758,0.48011 -4.54056,0.87982 -8.40568,0.88824 -4.72333,0.0103 -7.75678,0.52612 -9.25176,1.57324 -1.22334,0.85687 -2.6032,1.32374 -3.06635,1.03749 -1.39365,-0.86132 -8.50926,1.46241 -10.71885,3.50043 -1.13545,1.04728 -2.71849,1.90415 -3.51787,1.90415 -2.15869,0 -8.6891,4.70892 -9.34378,6.73758 -0.31281,0.96933 -1.91991,2.52899 -3.57133,3.46591 -1.65141,0.93692 -3.00257,2.22952 -3.00257,2.87244 0,0.84996 0.41594,0.82376 1.52417,-0.096 2.482,-2.05987 3.00411,-0.17117 0.64644,2.33845 -2.31931,2.4688 -3.00428,4.61839 -0.92061,2.88909 0.94616,-0.78524 1.25623,-0.38962 1.27564,1.62756 0.0141,1.46573 -0.6609,3.19964 -1.5,3.85313 -1.34789,1.04974 -1.30283,1.35329 0.38684,2.60539 1.36183,1.00917 1.68324,1.96273 1.11628,3.31183 -1.56969,3.73522 -1.62535,12.59825 -0.0938,14.93571 1.14417,1.74623 1.2339,2.88165 0.40326,5.10246 -0.7708,2.06084 -0.74706,4.04019 0.0852,7.10644 1.12983,4.16241 1.24224,4.25 5.45455,4.25 3.53915,0 4.48983,-0.41457 5.36739,-2.34061 0.85839,-1.88396 1.65673,-2.25398 4.09195,-1.89657 2.78918,0.40937 2.94021,0.63124 1.93355,2.84062 -0.94751,2.0797 -1.77665,2.39657 -6.27086,2.39657 -4.55875,0 -5.31587,0.30047 -6.32213,2.50897 -0.94671,2.07779 -0.7682,3.28076 1.03875,7 1.97702,4.0693 2.51534,4.49086 5.73265,4.48924 2.80332,-10e-4 3.86647,-0.56282 5.05073,-2.6671 1.29904,-2.30824 2.16893,-2.67642 6.49312,-2.74821 4.67541,-0.0776 5.11627,-0.31209 6.92855,-3.68479 1.91789,-3.56923 1.91744,-3.63269 -0.0491,-6.99987 -1.24414,-2.13025 -2.97934,-3.58458 -4.65098,-3.89812 -1.89042,-0.35457 -2.42798,-0.88177 -1.84708,-1.81148 0.65171,-1.04304 1.76522,-0.85184 5.44183,0.9344 3.57033,1.7346 4.37709,2.54142 3.54444,3.54469 -0.79332,0.9559 -0.53006,2.22765 0.99687,4.8156 1.99289,3.3777 2.00041,3.51667 0.19017,3.51667 -2.21133,0 -6.49491,6.36034 -5.54396,8.23176 0.35444,0.69753 -0.0215,0.45279 -0.83537,-0.54387 -1.08988,-1.33461 -2.56649,-1.72986 -5.60375,-1.5 -3.65108,0.27632 -4.41144,0.79563 -6.63131,4.52906 l -2.50738,4.21694 4.18701,3.03306 c 2.63814,1.91106 5.4013,3.03305 7.46958,3.03305 2.38702,0 3.45306,0.53715 3.90747,1.96888 0.3737,1.17742 2.10921,2.38112 4.31739,2.99442 5.34539,1.48462 5.78789,1.36552 8.01908,-2.1584 1.83703,-2.90139 1.88974,-3.45277 0.57342,-5.99826 -1.2999,-2.51374 -1.25991,-3.17286 0.38736,-6.38371 1.6326,-3.18228 1.98504,-3.40209 3.16847,-1.97614 1.12119,1.35096 1.0395,2.14668 -0.51718,5.03725 -1.77483,3.29566 -1.77826,3.5806 -0.0858,7.12964 1.42082,2.97949 1.50911,3.85772 0.45503,4.52624 -0.91784,0.5821 -0.63688,0.83402 0.94215,0.84477 1.2375,0.008 2.25,-0.43469 2.25,-0.98469 0,-0.55 2.025,-1 4.5,-1 2.475,0 4.42147,-0.3375 4.32549,-0.75 -0.096,-0.4125 0.38351,-1.8937 1.06554,-3.29155 1.04555,-2.14292 1.78325,-2.47813 4.70336,-2.13722 2.81987,0.3292 3.24941,0.66205 2.31202,1.79154 -1.70572,2.05527 -0.25255,1.70045 5.20826,-1.2717 3.14672,-1.71266 4.88533,-3.32177 4.88533,-4.52144 0,-1.02438 1.14255,-2.38309 2.53899,-3.01935 1.45937,-0.66493 2.40554,-1.82516 2.22514,-2.72856 -0.17262,-0.86445 0.56037,-2.28953 1.62886,-3.16685 1.33637,-1.09727 1.90021,-2.72587 1.80652,-5.21802 -0.0788,-2.09605 0.42742,-3.95246 1.20115,-4.40487 0.73554,-0.43009 1.66063,-1.82286 2.05575,-3.09504 0.65186,-2.09884 0.53735,-2.19999 -1.23654,-1.09218 -2.90467,1.814 -5.41726,0.44805 -5.03684,-2.73821 0.46325,-3.87999 3.17313,-5.24919 5.75843,-2.90952 2.02578,1.8333 2.05854,1.82325 2.05854,-0.63153 0,-3.83928 -4.08932,-5.31968 -7.43186,-2.69044 -2.14575,1.68785 -2.56814,1.76146 -2.56814,0.44752 0,-0.86492 0.5625,-1.5868 1.25,-1.60418 0.6875,-0.0174 2.4875,-1.1208 4,-2.45204 2.13091,-1.87553 2.75,-3.3133 2.75,-6.38661 0,-5.02673 -0.95574,-7.8194 -2.06295,-6.0279 -1.06985,1.73101 -3.93708,-0.61715 -3.93708,-3.22429 0,-2.15966 0.39935,-2.26939 3.06574,-0.84238 2.69758,1.4437 2.60267,-1.01839 -0.12943,-3.35768 -2.3146,-1.98183 -2.2914,-6.1775 0.0342,-6.1775 0.80875,0 1.9652,0.99234 2.56988,2.20521 1.02653,2.05901 1.19737,2.09216 2.57687,0.5 1.31119,-1.51331 1.26408,-2.07096 -0.41865,-4.95521 -1.09547,-1.87767 -1.43216,-3.25 -0.79735,-3.25 0.60433,0 1.11309,0.3375 1.13058,0.75 0.0175,0.4125 0.63801,1.549 1.37893,2.52555 1.25357,1.65224 2.11744,1.31451 12.43819,-4.86274 10.00834,-5.99026 11.74779,-6.69101 17.81837,-7.1783 l 6.7273,-0.54 -3.89037,5.40274 c -2.1397,2.97151 -5.98858,8.10275 -8.55306,11.40275 -2.56447,3.3 -5.19579,7.01693 -5.84738,8.25985 -1.45814,2.78147 -4.21365,15.52899 -7.07713,32.74015 -2.68213,16.12121 -4.43137,23.09695 -7.57339,30.2016 l -2.45018,5.5403 2.24846,-1.6223 c 17.55108,-12.66338 45.47051,-22.74933 58.24846,-21.04237 4.96651,0.66346 19.61629,5.41721 24.60628,7.98456 2.52946,1.3014 2.63941,1.23038 3.72982,-2.40908 0.61794,-2.06251 3.79683,-6.84166 7.0642,-10.62034 8.10167,-9.36953 10.75137,-15.1148 11.6332,-25.22401 0.42842,-4.91125 1.41648,-9.34135 2.46973,-11.07327 1.54754,-2.54472 10.86005,-9.70515 11.62595,-8.93924 0.16062,0.16062 -0.20703,4.54726 -0.817,9.74809 -1.24402,10.60687 -1.25712,11.62775 -0.27566,21.47869 1.00849,10.12218 -0.66298,16.84626 -6.11077,24.58282 -2.49918,3.54914 -3.99863,6.53692 -3.38352,6.74196 2.24966,0.74989 10.31532,-3.22426 15.01502,-7.39826 3.98395,-3.53831 11.38083,-8.25799 20.89533,-13.33257 3.88309,-2.07105 10.87037,-30.03009 7.14787,-28.60163 -8.13232,3.12066 -15.83744,0.72553 -19.05625,-5.92364 -2.58217,-5.33406 -2.56808,-7.06743 0.079,-9.71451 1.81523,-1.81523 2.87421,-2.03494 7.30079,-1.51468 2.84767,0.33469 7.74223,1.49089 10.8768,2.56934 l 5.69921,1.96082 0.0768,-9.19614 c 0.0914,-10.9385 1.50852,-16.29743 4.99875,-18.90326 5.15861,-3.85146 13.9244,1.91396 13.9244,9.15832 0,5.07137 -2.20648,11.04454 -6.20952,16.80978 -3.07525,4.42905 -3.29388,5.29499 -3.34242,13.23902 -0.0388,6.34926 -0.63004,10.01084 -2.33662,14.47104 -2.08953,5.46104 -2.1834,6.486 -1.09895,12 1.66975,8.49003 2.401,9.52896 6.70697,9.52896 5.47122,0 11.29558,-3.31483 20.49467,-11.66415 4.55723,-4.13626 10.21316,-8.91584 12.56875,-10.62129 3.01425,-2.18233 4.0835,-3.56198 3.60978,-4.65769 -4.85993,-11.24105 -6.85754,-22.31715 -4.62735,-25.65717 1.50258,-2.25032 5.3003,-3.47802 8.75435,-2.83003 6.05623,1.13615 10.57271,8.93563 9.23292,15.94429 -0.62221,3.25486 -0.27514,3.15079 3.38156,-1.01396 3.91019,-4.45346 8.66658,-4.8401 11.72414,-0.95304 5.42683,6.8991 3.11957,13.80889 -6.1592,18.44555 -3.35461,1.67632 -7.75253,3.31222 -9.77315,3.63533 -3.27558,0.52378 -3.80498,1.03654 -4.88332,4.72981 -1.63891,5.61319 -7.2794,15.80241 -12.51268,22.60345 -7.04616,9.15702 -17.36257,13.39381 -36.76063,15.09703 -18.04728,1.58461 -19.93411,2.67116 -29.19064,16.80976 -10.21594,15.60403 -16.13264,19.83152 -26.02578,18.59545 -5.12601,-0.64045 -5.25684,-0.59226 -6.49288,2.3918 -1.53282,3.70055 -15.25802,16.07209 -23.74199,21.4004 -5.89254,3.70078 -10.50213,8.79422 -17.71588,19.57543 -1.59383,2.38203 -4.06061,4.77305 -5.48175,5.31336 -4.21568,1.6028 -14.45047,-1.51712 -24.03941,-7.32806 -4.63046,-2.80608 -11.04834,-5.89806 -14.26194,-6.87106 -5.82644,-1.76411 -5.84641,-1.763 -7.08097,0.39285 -1.65037,2.88193 -1.60104,74.0792 0.0663,95.66194 0.65857,8.525 1.88361,29.45 2.7223,46.5 3.22455,65.55257 12.01967,144.580053 16.92353,152.064293 1.98409,3.02811 7.2535,6.9961205 11.82994,8.9082805 2.01985,0.84395 10.09563,2.46009 17.94617,3.59142 30.02953,4.32752996 66.37389,13.10365 78.29656,18.9063795 4.24323,2.06516 6.94281,4.23647 9.13634,7.34844 4.23112,6.00275 15.28636,13.04885 33.32652,21.24079 16.47438,7.48093 20.69715,10.21853 19.71403,12.7805 -0.54713,1.4258 -2.22797,1.63526 -11.91835,1.48519 -6.20477,-0.09609 -13.30639,-0.33092 -15.78139,-0.52184 z m 21,-2.74192 c 0,-0.24115 -8.88605,-4.7834 -19.74678,-10.09387 -18.71644,-9.15161 -20.11698,-10.03656 -26.8415,-16.96035 -3.90209,-4.01771 -8.85353,-8.18847 -11.00321,-9.26834 -11.31709,-5.68504 -48.52665,-14.5255995 -78.90851,-18.74774954 -15.03563,-2.08949996 -19.5286,-3.75071996 -25.90442,-9.57786046 -4.81841,-4.40375 -5.54961,-5.62409 -6.98998,-11.6658 -4.79439,-20.11036 -12.23374,-92.085153 -14.59942,-141.247563 -0.56901,-11.825 -1.74518,-32.96748 -2.6137,-46.98328 -0.86852,-14.01581 -1.88478,-39.21581 -2.25835,-56 l -0.67922,-30.51672 -2.79898,8.5 c -3.92271,11.9126 -7.1586,26.07941 -9.82177,43 -2.00628,12.74701 -2.28379,18.18733 -2.29542,45 -0.007,16.775 0.56308,37.7 1.26747,46.5 6.37196,79.605353 13.07014,134.076273 18.15992,147.6799235 5.75426,15.37965 21.90779,33.4577895 41.53387,46.4824295 l 6,3.98183 62.5,4.69272 c 34.375,2.58099 64.75,4.82994 67.5,4.99766 2.75,0.16772 5.5625,0.38606 6.25,0.48519 0.6875,0.0991 1.25,-0.0171 1.25,-0.25822 z M 307.63827,43.973033 c 3.56193,-2.80182 11.01798,-18.46853 13.62169,-28.62203 3.78458,-14.75844954 3.77939,-18.5295795 -0.11254,-81.85622 -8.57377,-139.506343 -8.65334,-144.437723 -2.88051,-178.532573 4.16151,-24.57823 15.52638,-61.10658 22.78982,-73.24978 10.40318,-17.39231 30.19634,-39.09925 41.50397,-45.51695 14.98872,-8.50692 33.35792,-8.94348 53.21597,-1.26473 8.91835,3.44857 23.57378,12.55927 23.20968,14.42854 -0.1448,0.74342 1.33414,1.31767 3.87179,1.50337 6.05913,0.44338 11.03672,-3.92912 20.26377,-17.80047 9.71558,-14.60577 11.3923,-15.57588 30.32864,-17.54742 19.10046,-1.98863 25.8674,-4.36811 32.98883,-11.59994 3.95352,-4.01482 7.12898,-8.67955 10.41627,-15.30146 4.19205,-8.44448 4.5957,-9.81835 3.55542,-12.10151 l -1.1735,-2.57555 -2.7891,1.98602 c -1.53401,1.09231 -6.81826,5.63438 -11.74277,10.09349 -13.97993,12.65872 -26.13102,17.369 -31.34816,12.15186 -4.48632,-4.48632 -5.28517,-18.92572 -1.59016,-28.74246 1.82966,-4.86095 2.33534,-7.64211 1.85503,-10.20238 l -0.66031,-3.51975 -2.72336,3.04797 c -2.02259,2.26367 -2.89988,4.56141 -3.40933,8.92955 -0.37728,3.23487 -2.04389,10.02983 -3.70358,15.09992 l -3.01761,9.21835 -8.0394,4.28165 c -4.42167,2.35491 -10.76264,6.63926 -14.09104,9.52078 -7.31328,6.33137 -14.60913,9.26955 -24.80265,9.98852 -7.28133,0.51357 -7.94145,0.37028 -16.92076,-3.67288 -5.1391,-2.31401 -13.42949,-5.57753 -18.42307,-7.25227 -7.72978,-2.59238 -10.06278,-2.96293 -15.69644,-2.49304 -17.28887,1.44201 -45.07458,15.21266 -63.01659,31.23114 -1.99858,1.78432 -8.67214,6.05202 -14.83012,9.48378 -13.6681,7.61706 -16.79146,10.16835 -19.24857,15.72304 -3.73481,8.44317 -7.09167,49.05361 -5.33265,64.51314 2.94626,25.89387 5.37763,127.01319 5.4927,228.438693 0.0586,51.6662705 -0.31898,55.6198405 -7.44392,77.94013 -1.90678,5.97334 -3.47514,11.18738 -3.48526,11.58674 -0.0249,0.98158 7.07771,4.67445 9.09674,4.72969 0.88833,0.0243 2.81031,-0.89592 4.27108,-2.04496 z m -162.88622,-0.86669 c 13.2,-1.06669 35.42331,-2.67413 49.38514,-3.5721 l 25.38514,-1.63266 8.88815,-3.855 c 25.89866,-11.23287 44.66266,-23.66983 50.29087,-33.33328954 3.08765,-5.30138996 2.93483,-2.53812996 8.16575,-147.65110346 1.75105,-48.57651 1.50811,-76.5275 -1.08212,-124.5 -0.80181,-14.85 -1.74503,-35.325 -2.09603,-45.5 -1.02668,-29.76133 -3.80227,-37.84611 -18.26842,-53.2125 l -8.78753,-9.33438 -3.74953,0.88675 c -7.82207,1.84987 -19.80186,-6.00721 -24.15122,-15.83987 -1.21643,-2.75 -4.03631,-10.625 -6.26641,-17.5 -4.64553,-14.32142 -11.26602,-31.67061 -16.79049,-44 -3.15584,-7.04313 -3.80711,-9.61408 -3.79976,-15 0.0104,-7.60684 1.69621,-11.88119 9.2205,-23.37831 4.70061,-7.18253 6.37674,-11.62169 4.38809,-11.62169 -0.42232,0 -2.33482,1.06546 -4.25,2.36769 -3.07665,2.09199 -3.98083,3.83255 -7.76486,14.94757 -2.3555,6.91893 -4.53789,15.41596 -4.84976,18.8823 -0.51647,5.74039 -0.16726,7.37261 3.91579,18.30244 4.56157,12.21077 6.09706,18.39685 7.16251,28.85576 1.12446,11.03831 14.16351,46.10868 18.31438,49.25916 2.75082,2.08785 10.24415,4.33901 22.65632,6.80648 6.31566,1.25551 12.63147,3.03524 14.03514,3.95496 3.79885,2.48911 7.39025,8.50845 10.63019,17.81672 l 2.8914,8.30692 -0.0168,34.5 c -0.0195,39.97602 -1.18371,70.66183 -3.43359,90.5 -1.78567,15.74511 -6.63107,46.40065 -9.00937,57 -1.12219,5.00121 -1.83691,16.70025 -2.50303,40.97134 -1.56056,56.861113 -4.40901,90.366793 -8.51859,100.202413 -2.01189,4.8151305 -6.92438,5.8713605 -57.28449,12.31672046 -31.88516,4.08083004 -43.44897,6.15591004 -46.31273,8.31061004 -0.88295,0.66434 -3.21998,3.7319295 -5.1934,6.8168795 -1.97341,3.08495 -4.95036,6.75532 -6.61544,8.15639 -2.74777,2.31209 -10.40754,4.72565 -14.99752,4.72565 -2.36424,0 -8.73355,5.0647 -12.83828,10.20864 -3.85386,4.82956 -3.96326,5.56911 -1,6.7602 3.3197,1.33436 7.78747,1.21373 34.25,-0.92469 z M 410.78596,-325.57045 c 6.98646,-7.67482 8.91559,-9.14494 17.38695,-13.25 7.00218,-3.39311 10.13995,-5.53028 11.83438,-8.06053 2.65707,-3.96772 2.61699,-4.01404 -6.02459,-6.96259 -5.94143,-2.02724 -6.3657,-1.88132 -14.82162,5.09766 -5.49504,4.53526 -8.11675,5.56878 -16.23648,6.40067 -6.51705,0.66769 -9.96838,-0.28644 -12.25583,-3.38815 -0.89357,-1.21165 -2.38971,-0.1761 -8.54343,5.91335 -4.10308,4.06022 -8.94641,9.55125 -10.76295,12.20226 l -3.30279,4.82004 6.84622,-0.56578 c 6.03852,-0.49903 7.96702,-0.17167 16.34623,2.77477 5.225,1.8373 9.9895,3.41039 10.58777,3.49574 0.59827,0.0854 4.62403,-3.72949 8.94614,-8.47744 z m -111.53312,-9.11736 c 4.3e-4,-1.5125 1.32683,-5.55299 2.94754,-8.97886 3.22756,-6.82244 4.88051,-8.13225 22.5117,-17.8385 4.92802,-2.71295 10.561,-6.51561 12.51773,-8.45036 4.43127,-4.3815 11.5181,-17.83581 13.49431,-25.61893 1.80122,-7.09389 6.72742,-35.4972 6.24092,-35.98369 -0.35963,-0.35963 -5.68401,21.65959 -7.75248,32.06077 -1.03593,5.20909 -1.87568,6.63303 -6.82094,11.56616 -3.10176,3.09415 -9.8096,8.42512 -14.9063,11.84661 -11.39998,7.65297 -16.2665,8.8409 -29.68252,7.24561 -11.40127,-1.35572 -14.89839,-2.37472 -19.79463,-5.76782 -5.30687,-3.67766 -22.26441,-21.63263 -25.23696,-26.72138 -4.73594,-8.10753 -9.50984,-30.46253 -9.52635,-44.60961 -0.0101,-8.68595 -0.60045,-16.38126 -3.95065,-51.5 -1.97029,-20.65368 -3.92987,-29.21371 -9.64715,-42.14148 -2.50786,-5.67071 -2.60903,-5.76139 -3.84702,-3.44818 -1.11537,2.08408 -0.85416,3.33857 2.12799,10.22011 1.86968,4.31443 4.28303,11.29932 5.363,15.52196 3.92488,15.34615 5.74478,53.61279 3.0687,64.5251 -1.21391,4.94996 -1.1914,6.7718 0.17568,14.21701 1.77852,9.68594 8.11065,26.31468 16.93628,44.4762 5.29902,10.90439 7.07034,13.48209 14.94378,21.74689 10.384,10.90012 15.02471,19.43249 17.55516,32.27671 l 1.59691,8.10568 h 5.84225 c 5.70652,0 5.84228,-0.0639 5.84305,-2.75 z m 112.6742,-13.66941 c 4.16223,-2.28127 10.88292,-8.35602 10.10507,-9.13386 -0.37019,-0.3702 -5.2333,0.12794 -10.8069,1.10697 -7.7918,1.36867 -11.05662,2.44853 -14.12671,4.67249 -3.42324,2.47978 -3.80739,3.11595 -2.69265,4.45913 1.03831,1.25109 2.64952,1.45357 7.99821,1.00516 3.68388,-0.30885 7.96922,-1.2583 9.52298,-2.10989 z m -89.47813,-29.02386 c 17.97461,-11.83202 22.12632,-16.37593 23.85256,-26.1059 0.58067,-3.27296 2.44585,-11.78291 4.14485,-18.911 2.88806,-12.11673 3.00876,-13.36432 1.85472,-19.17028 -1.32075,-6.64468 -0.87476,-9.45993 2.10258,-13.27221 3.00204,-3.84393 1.27465,-3.68752 -3.62617,0.32834 -5.1727,4.23863 -5.64376,6.81929 -3.0254,16.57432 0.81194,3.025 1.4816,7.36216 1.48813,9.63813 0.0127,4.41361 -3.92706,19.16125 -6.94149,25.98427 -4.56236,10.32668 -15.00102,17.02984 -32.14174,20.63975 -8.75069,1.84293 -10.91639,1.97081 -16.67404,0.98457 -16.28131,-2.78887 -29.43452,-13.37254 -35.20033,-28.32377 -4.21076,-10.91886 -4.75839,-14.47272 -6.53719,-42.42295 -3.76401,-59.14361 -5.13364,-67.80064 -12.57776,-79.5 -2.27472,-3.575 -3.8294,-5.6 -3.45485,-4.5 4.38406,12.87546 5.77951,20.71078 8.10331,45.49949 1.36635,14.57528 2.67363,32.57551 2.90505,40.00051 0.60339,19.35911 4.94417,40.28446 9.85348,47.5 3.88511,5.71022 16.59086,19.18999 22.07909,23.42413 6.59679,5.08939 15.36458,7.17307 28.2952,6.7244 7.91466,-0.27463 8.44828,-0.44992 15.5,-5.0918 z m -69.34236,-5.44565 c 1.07035,-0.67823 0.33609,-2.8122 -3.5,-10.17204 -5.12086,-9.82478 -5.9054,-10.46792 -14.9016,-12.21584 -5.10874,-0.99261 -6.07798,0.35153 -4.06129,5.63217 2.72363,7.13172 5.75264,10.89121 11.59767,14.39463 5.48673,3.28865 8.40173,3.9221 10.86522,2.36108 z m -80.09529,-6.1801 c 5.35744,-2.23796 13.04693,-5.65911 17.08776,-7.60255 6.91467,-3.32561 7.30711,-3.68932 6.66947,-6.18098 -0.37263,-1.4561 -0.90687,-4.26499 -1.18719,-6.24199 l -0.50967,-3.59454 -4.90979,0.47177 c -5.63859,0.5418 -5.23189,1.46558 -4.96723,-11.28269 l 0.18684,-9 -5.8147,-5.78621 c -9.44603,-9.39975 -24.3147,-15.65613 -24.3147,-10.23105 0,2.30983 8.42846,8.45533 13.77321,10.04255 10.24437,3.04225 11.68205,6.8073 8.28816,21.7053 -1.9778,8.68188 -2.58637,9.95921 -7.22402,15.16254 -5.41009,6.06998 -9.82846,8.82042 -17.11789,10.65593 -5.73979,1.44529 -6.906,0.77214 -10.49554,-6.05815 -2.24477,-4.27141 -4.30637,-6.4363 -9.28256,-9.74761 -3.5183,-2.34118 -8.88191,-6.69473 -11.91914,-9.67455 -3.03722,-2.97983 -7.9755,-7.24459 -10.97395,-9.47725 -4.86052,-3.61918 -11.048274,-11.01798 -11.048274,-13.2106 0,-0.44997 -0.621391,-0.57968 -1.38087,-0.28824 -1.001006,0.38412 -1.181572,1.41355 -0.656389,3.74214 1.424204,6.31473 3.755623,8.88795 19.552733,21.5806 6.04486,4.85691 9.22093,8.37937 13.07411,14.5 2.83024,4.49571 6.97098,9.52733 9.32774,11.3346 4.12602,3.16401 4.50092,3.25 14.16963,3.25 9.3522,0 10.49962,-0.23733 19.67226,-4.06902 z m 279.11222,-11.67896 c 1.18538,-2.32353 3.49923,-6.34387 5.1419,-8.93409 2.24759,-3.54408 2.98667,-5.89834 2.98667,-9.51371 0,-2.64232 -0.45,-4.80422 -1,-4.80422 -0.55,0 -1,0.68996 -1,1.53324 0,2.86086 -5.02831,11.4732 -10.38592,17.78871 -8.81226,10.38782 -9.62799,13.35365 -4.36408,15.86692 l 3.25,1.55172 1.6081,-4.63198 c 0.88445,-2.5476 2.57795,-6.53306 3.76333,-8.85659 z m -213.77007,-18.61135 c -2.25575,-5.76947 -4.10136,-11.02264 -4.10136,-11.67372 0,-0.72704 -0.8681,-0.96748 -2.25,-0.62317 -1.2375,0.30832 -4.1625,0.86462 -6.5,1.23621 -2.3375,0.3716 -4.25,1.14166 -4.25,1.71126 0,2.75588 3.65411,11.69514 4.78324,11.70151 1.76133,0.01 10.18628,4.35172 13.2263,6.81616 1.36975,1.11041 2.64857,1.86204 2.84182,1.6703 0.19325,-0.19174 -1.49425,-5.06909 -3.75,-10.83855 z m 338.89156,-10.98789 c 5.89719,-2.97188 7.82211,-6.27091 6.09369,-10.44369 -0.69835,-1.68596 -1.94596,-3.32488 -2.77247,-3.64204 -2.05014,-0.78671 -6.18796,3.84283 -10.25536,11.47404 l -3.32758,6.24319 2.8844,-0.68365 c 1.58642,-0.37601 4.90622,-1.70254 7.37732,-2.94785 z m -232.02333,-1.90278 c -0.0242,-2.58516 -0.22908,-2.90959 -1.00159,-1.58594 -0.53416,0.91523 -0.69733,2.37773 -0.36261,3.25 0.94078,2.45163 1.3975,1.89452 1.3642,-1.66406 z m 219.5821,-4.33774 c 2.0208,-9.08312 1.46954,-15.1669 -1.59948,-17.65204 -5.09159,-4.12292 -9.60018,-0.88963 -8.37188,6.00379 0.90946,5.10405 6.36369,19.23599 7.42415,19.23599 0.4725,0 1.61875,-3.41448 2.54721,-7.58774 z m -204.39534,-8.29589 c 0.70028,-2.60504 3.9522,-8.0471 8.01487,-13.41283 3.76005,-4.96605 6.6659,-9.19975 6.45744,-9.40821 -0.20846,-0.20846 -2.2287,0.36107 -4.48943,1.26564 -3.6923,1.47736 -9.42187,7.89307 -14.49264,16.22821 -0.49059,0.80641 -0.29334,4.85159 0.46396,9.51484 1.27951,7.87888 1.33964,7.99827 2.09238,4.15401 0.42626,-2.17692 1.3053,-5.93067 1.95342,-8.34166 z m 102.36693,4.89147 c 0.68505,-2.23107 0.59296,-2.3492 -0.87903,-1.12755 -0.90434,0.75053 -1.63057,2.547 -1.61384,3.99215 0.0336,2.9017 1.09787,1.67871 2.49287,-2.8646 z m 39.54134,-3.13098 c 2.71446,-1.16773 4.93538,-2.4854 4.93538,-2.92816 0,-1.2307 -10.88147,-5.02889 -16.21803,-5.66093 -5.63315,-0.66716 -6.80524,0.83276 -4.35435,5.57227 2.91356,5.63419 7.49714,6.51849 15.637,3.01682 z m -395.29481,-7.35981 c 8.28574,-7.44959 10.00278,-14.42765 4.30097,-17.47917 -3.00702,-1.60931 -5.60241,1.54655 -7.95329,9.67078 -4.117846,14.23053 -3.932169,14.6275 3.65232,7.80839 z m -9.754545,-8.40903 c -1.494991,-10.57658 -5.59049,-15.36062 -11.293614,-13.19229 -5.163386,1.96311 -3.284852,7.4628 6.650965,19.47168 l 4.043709,4.88741 0.712242,-2.66317 c 0.391732,-1.46474 0.340747,-5.29138 -0.113302,-8.50363 z m 418.677355,4.64198 c 7.1549,-10.03023 8.38726,-16.96881 3.67252,-20.67742 -3.6986,-2.90932 -5.2482,-2.5967 -6.91617,1.3953 -1.57297,3.76466 -2.09252,23.53212 -0.61849,23.53212 0.45676,0 2.19473,-1.9125 3.86214,-4.25 z m -348.70508,-3.91947 c 8.09759,-3.47939 10.73509,-7.74325 7.97728,-12.89627 -1.60745,-3.00355 -4.18337,-2.31327 -8.64167,2.31574 -3.66359,3.80388 -9.32315,11.8467 -9.32315,13.24918 0,0.81713 4.95855,-0.50778 9.98754,-2.66865 z m -8.90657,-10.92006 c 1.3778,-7.68123 0.17989,-11.53956 -4.24049,-13.65819 -3.32711,-1.59465 -5.68362,-0.72546 -6.4641,2.38424 -0.65762,2.62016 1.53445,12.51249 4.17093,18.82249 l 1.64513,3.93733 1.85328,-2.44817 c 1.0193,-1.34649 2.38517,-5.41346 3.03525,-9.0377 z m 127.91903,-16.48305 c 3.025,-0.7459 8.03936,-1.37221 11.14301,-1.3918 4.42727,-0.028 5.7896,-0.41264 6.32339,-1.78562 1.36126,-3.50127 1.80124,-19.2142 0.69811,-24.9315 -0.61746,-3.20017 -1.21217,-11.4435 -1.32158,-18.3185 -0.24612,-15.46546 1.1948,-19.1299 9.64861,-24.53773 4.80849,-3.07596 6.1709,-3.46311 12.21042,-3.46982 10.24406,-0.0114 18.92839,-1.73401 23.59591,-4.68049 5.82597,-3.67776 14.04233,-7.18628 17.91917,-7.65176 6.24316,-0.7496 16.69491,-5.74515 20.55944,-9.82664 2.04794,-2.16291 5.74852,-5.1006 8.22352,-6.5282 7.16147,-4.13081 17.56199,-13.00363 24.0308,-20.50098 6.8897,-7.98517 8.09362,-11.72089 2.2192,-6.8861 -16.11471,13.2628 -21.36915,17.29387 -33.25,25.50853 -7.425,5.1338 -15.90539,10.54227 -18.84532,12.01883 -8.31575,4.17654 -21.67467,6.71523 -37.15468,7.06077 -15.0003,0.33483 -22.34589,2.07502 -31.80464,7.53462 -7.88904,4.55356 -13.58722,14.79805 -19.75401,35.51483 -2.32633,7.81506 -2.72887,11.26809 -3.18879,27.35366 -0.5076,17.75325 -0.4591,18.38216 1.36054,17.6418 1.03779,-0.42225 4.3619,-1.37801 7.3869,-2.1239 z m 115.8022,-69.93741 c 5.14588,-1.55136 7.38613,-3.74538 5.58058,-5.46541 -0.48553,-0.46254 -6.28278,0.23559 -12.88278,1.55139 -9.29155,1.8524 -13.69278,2.25268 -19.5,1.7735 -8.57088,-0.70724 -8.65594,-0.009 -0.33464,2.7469 6.8465,2.26743 18.46556,2.0078 27.13684,-0.60638 z m 27.86235,-5.55257 c 3.47791,-1.3223 4.30071,-2.58314 4.32014,-6.62005 0.0181,-3.75141 -1.80106,-4.64398 -7.01414,-3.44157 -5.44094,1.25497 -16.15546,6.33927 -15.25558,7.23915 0.89527,0.89527 10.84626,3.71674 13.46993,3.81922 0.9267,0.0362 2.94254,-0.41234 4.47965,-0.99675 z m -49.66455,-0.35707 c 0,-0.2308 -2.25428,-1.16839 -5.00952,-2.08353 -2.75523,-0.91514 -5.47107,-2.52631 -6.03518,-3.58036 -0.56412,-1.05406 -1.51606,-1.91648 -2.11544,-1.91648 -1.88861,0 -12.90941,5.26379 -12.29894,5.87426 0.87996,0.87995 25.45908,2.5271 25.45908,1.70611 z m 18.23256,-2.56402 c 3.15291,-0.633 6.02171,-1.61875 6.37511,-2.19056 0.78122,-1.26404 -3.7382,-0.37493 -11.60767,2.28359 -5.66267,1.91301 -4.67167,1.89539 5.23256,-0.093 z m 22.82431,-15.25356 c 1.61872,-2.23457 2.94313,-4.83466 2.94313,-5.77797 0,-2.46273 -3.83114,-6.98482 -5.91759,-6.98482 -3.69457,0 -7.27632,7.44269 -8.68227,18.04126 l -0.69771,5.25956 4.70566,-3.23758 c 2.58811,-1.78067 6.03006,-5.06587 7.64878,-7.30045 z m 571.54021,558.630583 c -17.34685,-3.1326 -33.79813,-10.23046 -47.85267,-20.6459 -27.33124,-20.25443 -44.55811,-50.48727 -52.38598,-91.936413 -2.10143,-11.12718 -2.96984,-47.50026 -1.4439,-60.47679 9.36824,-79.66683 59.34743,-130.35328 128.51172,-130.33025 68.3325,0.0228 116.154,47.95564 125.1874,125.47906 2.88,24.7165 0.5462,58.08817 -5.631,80.51692 -14.7732,53.640033 -51.1215,88.864173 -100.6048,97.493343 -10.851,1.89225 -35.0413,1.83943 -45.78077,-0.1 z m 46.90287,-32.38182 c 24.3347,-7.68699 43.6903,-26.42528 55.0717,-53.315493 19.1537,-45.25303 16.1136,-104.80612 -7.412,-145.19606 -6.8246,-11.7169 -22.0952,-26.77386 -32.6597,-32.20282 -13.6757,-7.02782 -20.9198,-8.76909 -36.5,-8.77359 -15.9833,-0.005 -22.28442,1.40033 -35.49995,7.9154 -31.26017,15.41082 -50.6585,51.56976 -54.45927,101.51339 -2.65986,34.95153 5.41903,70.12066 21.83388,95.047623 1.99201,3.025 6.9583,9.00158 11.03618,13.28128 11.77603,12.35883 24.40106,19.72517 39.64146,23.12963 10.0686,2.24917 29.6216,1.54664 38.9477,-1.39936 z m 1021,33.31281 c -7.7358,-0.96948 -23.5902,-4.76518 -31.3805,-7.51282 -36.136,-12.74513 -63.2698,-40.59719 -76.4558,-78.479563 -7.5878,-21.79909 -10.167,-41.0136 -9.3689,-69.7957 0.4464,-16.09938 1.0558,-22.4078 3.1012,-32.10578 12.8506,-60.9268 51.7708,-101.16942 109.8222,-113.55367 12.3827,-2.64164 39.6164,-3.5921 54.9222,-1.9168 13.1584,1.44026 31.5278,5.82582 39.2933,9.381 l 5.3888,2.46706 -4.5174,15.34596 c -2.4846,8.44027 -4.5957,15.43446 -4.6913,15.54263 -0.096,0.10818 -4.1554,-1.402 -9.0218,-3.35596 -15.0634,-6.04828 -25.3401,-7.76801 -46.592,-7.7969 -19.4938,-0.0265 -24.5433,0.6462 -38.5,5.12896 -36.8286,11.82902 -60.481,41.06133 -69.0399,85.32722 -2.4897,12.8763 -3.0124,38.94451 -1.075,53.61212 3.8659,29.2687 13.5827,50.503513 31.0645,67.887883 16.6516,16.55885 35.7976,25.01157 62.794,27.72281 20.1541,2.02407 47.3824,-1.65515 64.6551,-8.73648 7.209,-2.95554 7.5271,-2.80133 8.5703,4.1558 0.3556,2.37119 0.9979,4.52837 1.4272,4.79374 0.4294,0.26536 20.1502,-59.686653 43.824,-133.226693 l 43.0433,-133.70918 h 22.2109 22.2108 l 40.9132,126.5 c 22.5022,69.575 41.1989,127.175003 41.5481,128.000003 0.4347,1.02705 0.9594,0.39645 1.6639,-2 0.5659,-1.925 1.1103,-3.6202 1.2097,-3.76711 0.099,-0.1469 2.7759,1.29558 5.9476,3.20551 7.9014,4.75796 19.0436,9.27154 30.4585,12.33841 8.4932,2.28188 11.549,2.57954 27.0738,2.63723 16.6967,0.062 17.8672,-0.0638 25.5,-2.74225 9.8306,-3.44963 15.8821,-7.23473 21.9666,-13.73957 9.5791,-10.24084 14.0758,-26.20563 11.7176,-41.601473 -3.2906,-21.48374 -17.8607,-35.60998 -50.5424,-49.00299 -27.625,-11.32076 -40.6646,-19.16455 -53.6418,-32.26737 -9.625,-9.71821 -14.8398,-17.94698 -18.7332,-29.56039 -2.4497,-7.30717 -2.682,-9.34237 -2.6825,-23.5 -6e-4,-14.89109 0.1272,-15.87107 3.2541,-24.94579 4.0511,-11.75731 8.6576,-19.42243 16.9635,-28.22713 11.0385,-11.70136 24.98,-19.56038 42.4042,-23.90386 10.459,-2.60721 32.7998,-3.6163 45.8882,-2.07269 15.4359,1.82045 34.787,7.53409 40.7498,12.03188 l 2.3288,1.75658 -4.7187,14.93051 c -2.5953,8.21177 -4.8183,15.05211 -4.94,15.20074 -0.1218,0.14864 -3.5497,-1.29598 -7.6178,-3.21026 -20.3386,-9.5707 -47.3183,-12.6556 -65.3964,-7.47753 -12.546,3.59351 -23.6597,12.77882 -28.8644,23.8558 -2.6599,5.6612 -3.1347,7.93417 -3.4591,16.56175 -0.3118,8.29235 -0.01,11.09581 1.7907,16.41708 5.3279,15.78 17.6116,26.14639 45.2724,38.20607 48.1216,20.98023 66.4624,36.37911 75.4852,63.37685 2.4919,7.45629 2.6771,9.22334 2.7244,26 0.059,20.910933 -0.9146,25.850043 -7.8845,40.000003 -8.1437,16.53272 -19.5505,27.65666 -37.0647,36.14555 -14.428,6.99306 -25.842,9.49596 -46.0234,10.0922 -19.0224,0.562 -32.2189,-0.9532 -47.4467,-5.4478 -4.6914,-1.38472 -9.2623,-2.7295 -10.1574,-2.98841 -1.286,-0.37197 -1.523,0.0761 -1.1292,2.13588 l 0.4983,2.60661 -19.2238,-0.27201 -19.2237,-0.27202 -14.6799,-45.5 c -8.0739,-25.025 -15.0291,-46.062503 -15.456,-46.750003 -0.6039,-0.97242 -11.6513,-1.25 -49.7486,-1.25 -45.7125,0 -49.018,0.11649 -49.6579,1.75 -0.3771,0.9625 -7.0401,22.000003 -14.8067,46.750003 l -14.121,45 -18.7761,0.27248 -18.776,0.27249 0.6541,-2.60627 c 0.37,-1.47389 0.2604,-2.36293 -0.2521,-2.0462 -2.321,1.43449 -21.8639,5.68978 -32.4751,7.07118 -10.7195,1.3955 -41.6938,1.92657 -50.1988,0.86068 z m 240.5,-126.996103 c 0,-0.36946 -6.3324,-19.99791 -14.0721,-43.61879 -13.5894,-41.47395 -21.7526,-69.20666 -25.4494,-86.45947 -1.7801,-8.30736 -2.9985,-10.15207 -3.9631,-6 -0.2875,1.2375 -1.6637,7.15841 -3.0582,13.15757 -4.2557,18.30749 -8.0925,31.32893 -22.5683,76.59243 -7.6515,23.925 -14.162,44.2875 -14.4677,45.25 -0.5235,1.64774 1.9021,1.75 41.5114,1.75 23.1371,0 42.0674,-0.30228 42.0674,-0.67174 z M 662.52084,-21.920767 c -5.07717,-0.44897 -11.93967,-1.13066 -15.25,-1.51486 l -6.01879,-0.69855 V -169.46861 c 0,-137.54271 0.0938,-145.36318 1.75,-145.87087 3.72583,-1.14211 19.24946,-3.47106 29.75,-4.46326 38.60111,-3.64745 69.19258,-1.44109 89.18091,6.43203 9.50538,3.74403 21.94185,12.2044 28.92274,19.67575 11.0792,11.85761 16.44604,26.11561 16.65882,44.25715 0.15027,12.81293 -1.37745,19.83834 -6.74114,31 -7.00065,14.56813 -20.61711,27.49483 -35.45911,33.66289 -2.81013,1.16783 -4.87487,2.35779 -4.58831,2.64435 0.28656,0.28656 4.25242,1.92462 8.81303,3.64014 22.37806,8.41772 40.40454,27.9106 46.28728,50.05262 0.87675,3.3 1.82614,11.175 2.10977,17.5 0.88386,19.710723 -4.10014,37.025683 -15.08625,52.411253 -13.60977,19.05987 -34.09691,29.89876 -66.59774,35.23407 -10.97969,1.80241 -58.79996,2.69208 -73.73121,1.37172 z m 73.23121,-31.87978 c 22.89699,-6.11282 37.13493,-19.07712 42.17535,-38.40261 1.98557,-7.61288 2.1825,-22.294393 0.39885,-29.734653 -4.65109,-19.40132 -20.41262,-33.92513 -43.5742,-40.15239 -6.86888,-1.84678 -11.50057,-2.21447 -32.75837,-2.60054 l -24.75837,-0.44964 0.25837,56.35128 0.25837,56.351293 4,0.66205 c 2.2,0.36413 13.45,0.53806 25,0.38651 17.68836,-0.23208 22.26158,-0.61234 29,-2.4113 z M 724.81839,-194.96806 c 15.07441,-2.61734 27.49178,-9.38264 35.59597,-19.39359 7.37506,-9.11025 9.34354,-15.57627 9.30845,-30.57616 -0.0369,-15.78291 -1.90525,-21.18429 -10.50912,-30.38185 -11.94216,-12.76621 -27.89469,-17.25095 -57.96164,-16.29479 -9.625,0.30609 -18.85,0.95336 -20.5,1.43838 l -3,0.88185 -0.2597,47.6782 -0.25969,47.67821 h 20.82603 c 11.45432,0 23.49619,-0.46361 26.7597,-1.03025 z m 940.89781,173.077083 c -5.5198,-0.42238 -13.0573,-1.09153 -16.75,-1.48699 l -6.7142,-0.71903 V -169.87972 -315.66245 l 5.75,-0.69479 c 24.6673,-2.98062 32.0601,-3.65147 50.7039,-4.60107 66.2831,-3.37603 110.2722,9.38142 139.2166,40.3747 23.6248,25.29727 35.2935,58.92431 35.3213,101.78985 0.032,48.70312 -14.6449,89.612653 -41.9407,116.906363 -20.0713,20.06977 -47.0783,32.37173 -84.5511,38.51388 -11.3343,1.85781 -63.6292,2.81453 -81.0358,1.48254 z m 76.0358,-31.52959 c 13.1038,-2.14717 22.7703,-5.06474 33.3515,-10.06628 31.8296,-15.04526 50.7659,-42.556963 57.7833,-83.950963 2.386,-14.07423 2.3809,-45.5222 -0.01,-58.5 -9.0856,-49.32734 -39.7073,-77.6028 -91.0147,-84.04107 -11.7057,-1.46888 -45.5932,-0.68936 -55.6106,1.27922 l -6.5,1.27737 -0.2541,117.17542 -0.2541,117.175423 2.7541,0.41699 c 7.7722,1.17675 51.3032,0.61863 59.7541,-0.76611 z m -904.83328,29.81609 c -0.36667,-0.36666 -0.66667,-66.96666 -0.66667,-148.000003 v -147.33333 h 18.5 18.5 v 148 148.000003 h -17.83333 c -9.80834,0 -18.13334,-0.3 -18.5,-0.66667 z m 319.33328,-3.14163 c 0,-2.09457 4.2747,-68.58207 9.4993,-147.750003 5.2246,-79.16794 9.4996,-144.0542 9.5,-144.1917 4e-4,-0.1375 10.468,-0.25 23.2614,-0.25 h 23.2606 l 26.695,80.25 c 28.1394,84.59199 32.8602,99.70932 43.1882,138.29942 3.5255,13.172823 6.6405,23.275583 6.9223,22.450583 0.2817,-0.825 3.6768,-12.75 7.5447,-26.500003 9.2077,-32.73345 19.0282,-62.49431 48.0121,-145.5 l 23.9187,-68.5 h 23.3395 23.3395 l 8.1388,137.5 c 4.4763,75.625 8.4322,142.112503 8.7909,147.750003 l 0.6521,10.25 h -18.0315 c -16.5045,0 -18.032,-0.14821 -18.0364,-1.75 0,-0.9625 -1.5679,-31.9 -3.4784,-68.75 -5.3296,-102.799473 -6.4508,-127.616603 -7.1723,-158.755813 -0.3664,-15.81569 -0.8378,-28.58422 -1.0475,-28.37451 -0.2097,0.20971 -4.2007,13.14982 -8.8688,28.7558 -9.4151,31.47562 -27.538,85.86847 -56.7663,170.374523 l -19.3688,56 -13.8965,0.25787 -13.8966,0.25786 -21.4575,-66.25786 c -33.9237,-104.752093 -42.0655,-131.643903 -51.6975,-170.754733 -2.5738,-10.45098 -4.7819,-18.8896 -4.9069,-18.75247 -0.125,0.13713 -0.7454,14.42433 -1.3787,31.74933 -1.8758,51.3169 -9.3112,191.285353 -11.6205,218.750003 l -0.6095,7.25 h -16.9147 -16.9147 z m 320,-144.191703 v -148 h 75.5 75.5 v 16 16 h -57.5 -57.5 v 46.5 46.5 h 46 46 v 16 16 h -46 -46 v 53 53.000003 h 61 61 v 16.5 16.5 h -79 -79 z m 413.6667,147.333333 c -0.3667,-0.36666 -0.6667,-66.96666 -0.6667,-148.000003 v -147.33333 h 18.5 18.5 v 148 148.000003 h -17.8333 c -9.8084,0 -18.1334,-0.3 -18.5,-0.66667 z M 1534.194,-339.18781 c 1.6865,-2.3375 10.3973,-13.925 19.3575,-25.75 l 16.2911,-21.5 22.4436,-0.26977 22.4436,-0.26977 -19.9889,19.27277 c -10.9939,10.60003 -23.1749,22.30892 -27.069,26.01977 l -7.08,6.747 h -14.7321 -14.7321 z M 289.29192,-388.38977 c -2.65646,-3.20083 1.24523,-8.11777 4.71013,-5.93574 3.46233,2.18041 2.22883,7.3877 -1.75,7.3877 -0.96531,0 -2.29737,-0.65338 -2.96013,-1.45196 z m 15.34417,-1.98963 c -1.5003,-3.90971 2.15961,-7.96532 5.36596,-5.94611 3.77635,2.37817 2.14633,7.3877 -2.40383,7.3877 -1.32492,0 -2.65787,-0.64871 -2.96213,-1.44159 z m -27.46221,-4.42062 c -2.6292,-2.129 -1.93201,-5.68239 1.31725,-6.71367 2.87872,-0.91367 6.17983,2.92463 4.77419,5.55109 -1.44508,2.70016 -3.66855,3.12451 -6.09144,1.16258 z m 51.15712,0.27888 c 0.048,-1.16495 0.28494,-1.4019 0.60416,-0.60417 0.28887,0.72187 0.25335,1.58437 -0.0789,1.91667 -0.33229,0.33229 -0.56864,-0.25834 -0.52522,-1.3125 z m -10.04688,-2.35674 c -1.64592,-3.07543 0.35863,-6.26908 3.68433,-5.86986 3.34865,0.40197 5.17674,3.16572 3.67762,5.55993 -1.64396,2.62555 -6.02398,2.80994 -7.36195,0.30993 z m -5.40111,-2.84804 c -0.31313,-0.50664 0.60671,-1.99908 2.04407,-3.31653 l 2.61339,-2.39536 -1.84155,3 c -1.01285,1.65 -1.93269,3.14244 -2.04407,3.31653 -0.11139,0.17409 -0.45872,-0.098 -0.77184,-0.60464 z m 16.35776,-1.23297 c -1.47239,-2.75119 -1.04823,-3.11632 1.83045,-1.5757 2.01202,1.0768 2.11946,1.40282 0.81823,2.48274 -1.23385,1.02402 -1.70079,0.86411 -2.64868,-0.90704 z m -38.94885,-0.43088 c -2.65646,-3.20083 1.24523,-8.11777 4.71013,-5.93574 3.46233,2.18041 2.22883,7.3877 -1.75,7.3877 -0.96531,0 -2.29737,-0.65338 -2.96013,-1.45196 z m 13.9922,-3.48811 c -1.64592,-3.07543 0.35863,-6.26908 3.68433,-5.86986 3.34865,0.40197 5.17674,3.16572 3.67762,5.55993 -1.64396,2.62555 -6.02398,2.80994 -7.36195,0.30993 z m -38.98639,-1.50489 c -0.65956,-0.79472 -1.05216,-2.48222 -0.87244,-3.75 0.27011,-1.90542 0.93354,-2.30504 3.82676,-2.30504 2.89322,0 3.55665,0.39962 3.82676,2.30504 0.39119,2.75952 -1.40283,5.19496 -3.82676,5.19496 -0.96531,0 -2.29475,-0.65023 -2.95432,-1.44496 z m 65.9651,-0.042 c -2.71611,-3.27271 1.44067,-9.04306 4.61597,-6.4078 1.91008,1.58523 1.7136,4.27682 -0.45549,6.23982 -2.24153,2.02856 -2.60419,2.0432 -4.16048,0.16798 z m -12.43935,-2.08442 c -2.06219,-2.06219 -1.98312,-3.01688 0.45149,-5.45149 1.60672,-1.60672 2.42968,-1.80522 4,-0.96481 1.08739,0.58195 1.97708,1.91012 1.97708,2.95149 0,1.93751 -2.46114,5.03624 -4,5.03624 -0.47143,0 -1.56429,-0.70714 -2.42857,-1.57143 z m 464.62597,0.0126 c -6.37083,-1.71466 -9.1974,-3.13154 -9.1974,-4.61038 0,-0.60434 0.53064,-2.86991 1.17919,-5.03459 0.85955,-2.86892 1.60499,-3.79419 2.75,-3.41342 0.86395,0.28731 4.04581,1.42902 7.07081,2.53713 3.48311,1.27593 8.04285,2.02672 12.43428,2.04739 12.58663,0.0593 19.56572,-5.53647 19.56572,-15.6875 0,-9.06864 -2.54699,-11.28932 -24.85587,-21.6714 -12.4406,-5.78959 -18.70309,-16.68984 -16.14552,-28.10226 2.3977,-10.69901 10.22126,-17.26694 23.27594,-19.54031 7.32947,-1.27638 18.71154,-0.0587 23.73551,2.53932 l 2.81806,1.45728 -1.58489,4.9561 c -1.55954,4.8768 -1.62616,4.93493 -4.16407,3.63289 -1.41854,-0.72777 -5.18698,-1.86069 -8.37431,-2.51761 -13.60564,-2.80417 -23.69145,2.96968 -23.70111,13.56826 -0.007,7.91573 3.82504,11.22707 22.84385,19.73865 12.52257,5.60429 18.40226,13.45981 18.50541,24.72401 0.11294,12.33467 -6.37763,21.14907 -18.63795,25.31093 -5.95117,2.02018 -20.12968,2.05393 -27.51765,0.0655 z m 253.41785,-0.0263 c -7.1472,-2.27377 -14.5876,-10.05394 -17.623,-18.42782 -2.2574,-6.2274 -2.3676,-7.83817 -2.7528,-40.23709 l -0.4013,-33.75001 h 6.0809 6.0809 l 0.01,28.25 c 0.01,28.67088 0.8226,38.52384 3.65,44.13345 8.5682,16.9995 30.5045,16.06303 38.4582,-1.64181 2.2912,-5.10028 2.3641,-6.12487 2.7023,-37.99164 l 0.3476,-32.75 h 5.9172 5.9172 l -0.017,30.25 c -0.018,32.07352 -0.7854,39.52277 -4.8998,47.58769 -2.7126,5.31709 -8.1164,10.47311 -13.9103,13.27244 -6.1199,2.95681 -22.1414,3.66406 -29.5573,1.30478 z m 157.6707,0.13434 c -25.8273,-8.07167 -37.1679,-42.91557 -23.2152,-71.32888 14.7038,-29.94276 58.5376,-30.52644 73.5457,-0.9793 5.9438,11.70182 7.0205,32.11917 2.3959,45.43269 -4.4627,12.84736 -14.1118,22.67373 -25.8677,26.34274 -7.4223,2.31649 -20.3318,2.57255 -26.8587,0.53275 z m 25.4181,-11.1567 c 6.2594,-3.00063 9.595,-6.74681 13.7055,-15.39255 2.9643,-6.23486 3.09,-7.03029 3.0807,-19.5 -0.012,-16.21243 -1.9707,-22.11079 -10.0128,-30.15289 -14.9424,-14.94242 -37.2544,-8.82937 -45.625,12.50035 -1.8445,4.70002 -2.2237,7.67468 -2.2501,17.65254 -0.027,10.17934 0.3123,12.86506 2.2366,17.70163 2.4565,6.17412 9.7057,14.99443 14.2585,17.34881 7.6582,3.96019 16.1295,3.90583 24.6066,-0.15789 z m 82.5459,11.92769 -7.25,-0.40786 v -45.89492 -45.89491 l 4.75,-0.80489 c 2.6125,-0.44268 11.5,-0.79261 19.75,-0.77762 21.2317,0.0386 31.562,3.47346 41.094,13.66393 8.6168,9.21204 12.3589,22.89344 10.4277,38.12486 -2.777,21.90311 -13.8408,34.84241 -34.2768,40.08732 -6.3027,1.61759 -23.1029,2.54495 -34.4949,1.90409 z m 33.6276,-12.15393 c 15.6738,-6.03659 22.62,-17.33309 22.5458,-36.66631 -0.047,-12.23379 -2.3483,-18.98674 -8.6702,-25.44125 -6.8539,-6.99761 -13.1877,-9.36275 -26.443,-9.87412 -6.1543,-0.23743 -12.3418,-0.14253 -13.75,0.21089 l -2.5602,0.64257 v 36.31429 c 0,19.97285 0.3375,36.6653 0.75,37.09434 1.5222,1.58322 22.5148,-0.11874 28.1276,-2.28042 z m 422.3198,11.33575 c -9.6556,-2.70951 -9.9884,-3.11329 -8.1179,-9.84937 0.8128,-2.92731 1.4691,-3.71581 2.7444,-3.2974 0.9218,0.30246 4.1511,1.45656 7.1761,2.56467 6.4764,2.37241 17.5018,2.73287 22.2977,0.729 1.7785,-0.74308 4.689,-3.00874 6.4679,-5.0348 2.7785,-3.1645 3.2344,-4.43327 3.2344,-9.00107 0,-9.4489 -2.3537,-11.53261 -24.8559,-22.00464 -16.2202,-7.54857 -21.6354,-24.38768 -12.0389,-37.43682 3.7059,-5.03931 12.9873,-9.7537 20.9595,-10.64623 6.3593,-0.71196 17.8435,0.85863 22.0018,3.00899 l 2.8154,1.4559 -1.5637,4.58938 c -1.3505,3.96344 -1.8539,4.4984 -3.691,3.92238 -12.1648,-3.81429 -19.7067,-4.06368 -25.9082,-0.85671 -4.0896,2.11477 -6.7109,7.02143 -6.7153,12.56986 0,6.376 3.617,10.41724 13.202,14.72981 14.4871,6.51825 16.2664,7.4867 20.0732,10.92596 5.6972,5.14708 7.9062,10.16486 7.9557,18.07195 0.07,11.24568 -4.9239,19.30326 -14.9219,24.07469 -6.232,2.97409 -22.9625,3.77227 -31.1153,1.48445 z m 194.8453,0.35942 c -15.8046,-2.62005 -28.3288,-13.4656 -33.0422,-28.61334 -9.1662,-29.4583 5.8612,-57.87341 33.7297,-63.77886 3.7234,-0.789 10.1448,-1.43455 14.2698,-1.43455 7.4294,0 20.6533,2.21859 22.151,3.71628 1.2476,1.24762 -1.749,9.79821 -3.2996,9.41494 -0.7433,-0.18373 -4.0514,-1.02667 -7.3514,-1.8732 -4.1332,-1.06026 -8.6819,-1.38662 -14.6197,-1.04893 -15.076,0.8574 -25.8082,7.70722 -31.5532,20.13875 -2.5705,5.56209 -2.8241,7.116 -2.7942,17.11743 0.03,9.94797 0.3076,11.60171 2.9052,17.29148 3.6213,7.93231 11.3708,15.29222 18.8004,17.85523 5.6322,1.94299 19.2307,2.49608 26.0115,1.05798 l 3.75,-0.79532 v -13.95469 -13.95469 h -9.5 -9.5 v -5 -5 h 15.5 15.5 v 22.47207 22.47206 l -5.25,1.49519 c -12.0554,3.43334 -24.5111,4.27826 -35.7073,2.42216 z m 166.9815,-0.40765 c -11.6466,-3.25081 -20.4179,-10.40396 -25.5357,-20.8249 -4.424,-9.00832 -5.8479,-16.72905 -5.1879,-28.12893 1.4332,-24.75404 16.3252,-41.04311 40.6808,-44.49736 7.5293,-1.06786 20.7337,-0.0437 26.828,2.08078 l 3.0225,1.05363 -1.5608,4.68148 c -0.8584,2.57481 -1.6291,4.77747 -1.7126,4.8948 -0.084,0.11733 -2.3808,-0.4902 -5.1052,-1.35006 -7.6546,-2.41595 -20.6586,-2.10964 -27.9027,0.65726 -7.9139,3.02271 -14.5197,9.30954 -18.1201,17.24516 -2.3157,5.10382 -2.9038,7.99235 -3.2436,15.92934 -0.5749,13.42711 1.8725,21.52045 8.7994,29.09964 7.4434,8.14423 12.743,10.17002 26.5137,10.13494 7.514,-0.0191 12.3448,-0.52925 15.2435,-1.60963 l 4.2436,-1.5816 1.0732,3.98562 c 1.4025,5.20841 0.8241,6.41328 -3.755,7.82265 -6.2747,1.93121 -27.9006,2.18807 -34.2811,0.40718 z m 111.2618,0.14959 c -21.8713,-7.1165 -33.5566,-31.78975 -27.8368,-58.77709 5.1092,-24.10681 25.0072,-38.44746 48.3008,-34.81092 17.2779,2.69738 28.6326,13.43066 33.2317,31.4129 6.5182,25.48606 -3.0044,50.58013 -22.7064,59.83614 -5.9936,2.81578 -7.929,3.21342 -16.7753,3.44656 -6.4419,0.16978 -11.4993,-0.22431 -14.214,-1.10759 z m 24.2839,-10.55015 c 11.2609,-4.92908 18.445,-18.97633 18.4182,-36.01337 -0.028,-18.11629 -8.5936,-32.76649 -21.3759,-36.56243 -20.7903,-6.17406 -37.5613,10.40374 -37.6003,37.16719 -0.04,27.48908 19.5593,44.60006 40.558,35.40861 z m 212.4301,10.87805 c -1.925,-0.54643 -5.2185,-1.73683 -7.3188,-2.64532 -3.0991,-1.34052 -3.7071,-2.04136 -3.2259,-3.71891 0.3261,-1.1369 0.8704,-3.3405 1.2097,-4.89687 0.6777,-3.10881 0.3461,-3.11721 9.56,0.24233 7.9611,2.90274 17.8686,2.8351 23.8131,-0.16256 3.3553,-1.69196 5.0429,-3.42115 6.8045,-6.97205 5.0071,-10.09285 -0.2587,-18.38583 -15.6203,-24.60013 -16.7686,-6.78343 -23.332,-13.53695 -24.0455,-24.74185 -0.5507,-8.64855 1.5836,-14.17488 7.4784,-19.36365 6.0083,-5.2887 12.8097,-7.50795 22.8448,-7.45408 7.7426,0.0416 19.5,2.59297 19.5,4.23156 0,0.43666 -0.7043,2.86083 -1.565,5.38706 l -1.5651,4.59314 -4.6731,-2.06714 c -6.2517,-2.76541 -17.2247,-2.95639 -22.431,-0.3904 -4.6765,2.30486 -7.7678,7.18353 -7.7592,12.24557 0.012,7.28462 4.4662,11.60036 17.8949,17.33989 16.5059,7.05472 22.6546,13.341 23.7877,24.3199 1.183,11.46207 -4.2653,21.40935 -14.4596,26.39995 -5.0298,2.46233 -7.012,2.83189 -16.2296,3.02598 -5.775,0.1216 -12.075,-0.22599 -14,-0.77242 z M 654.25205,-454.43781 v -46.5 h 6 6 v 46.5 46.5 h -6 -6 z m 33,0 v -46.5 h 6.85491 6.85491 l 4.50608,7.25 c 2.47835,3.9875 10.59141,16.925 18.02904,28.75 7.43762,11.825 15.71267,25.59287 18.389,30.59527 l 4.86606,9.09528 -0.33308,-37.84528 -0.33309,-37.84527 h 5.58309 5.58308 v 46.54772 46.54771 l -6.21878,-0.29771 -6.21877,-0.29772 -18.62735,-29.80416 c -10.24504,-16.39228 -20.71107,-33.71728 -23.25784,-38.5 l -4.63049,-8.69584 -0.0234,38.75 -0.0234,38.75 h -5.5 -5.5 z m 176.76109,5.25 -0.26109,-41.25 -14.25,-0.27746 -14.25,-0.27745 v -4.97255 -4.97254 h 34.5 34.5 v 5 5 h -14 -14 v 41.5 41.5 h -5.98891 -5.9889 z m 51.23891,-5.25 v -46.5 h 6 6 v 46.5 46.5 h -6 -6 z m 50,5 v -41.5 h -14 -14 v -5 -5 h 34.5 34.49995 v 5 5 h -13.99995 -14 v 41.5 41.5 h -6.5 -6.5 z m 157.99995,0 v -41.5 h -14 -14 v -5 -5 h 34.5 34.5 v 4.97254 4.97255 l -14.25,0.27745 -14.25,0.27746 -0.2611,41.25 -0.2611,41.25 h -5.9889 -5.9889 z m 264,-5 v -46.5 h 25 25 v 5 5 h -19 -19 v 14.5 14.5 h 18 18 v 5 5 h -18 -18 v 17 17 h 20 20 v 5 5 h -26 -26 z m 97,0 v -46.5 h 6 6 v 46.5 46.5 h -6 -6 z m 33,0 v -46.5 h 6.8549 6.8549 l 4.5061,7.25 c 2.4784,3.9875 10.5914,16.925 18.029,28.75 7.4377,11.825 15.7127,25.59287 18.389,30.59527 l 4.8661,9.09528 -0.3331,-37.84528 -0.3331,-37.84527 h 5.5831 5.5831 v 46.54772 46.54771 l -6.2188,-0.29771 -6.2188,-0.29772 -18.6273,-29.80416 c -10.245,-16.39228 -20.7111,-33.71728 -23.2578,-38.5 l -4.6305,-8.69584 -0.023,38.75 -0.024,38.75 h -5.5 -5.5 z m 100.5993,13.25 c -5.9948,-18.2875 -12.8193,-39.2322 -15.1655,-46.54377 l -4.2657,-13.29378 6.6203,0.29378 6.6202,0.29377 3.2102,10 c 8.7612,27.29126 14.8709,47.13661 17.8564,58 l 3.2978,12 1.124,-4.5 c 1.3085,-5.23815 13.1242,-41.11012 20.3396,-61.75 l 4.9817,-14.25 h 6.4978 c 5.5851,0 6.4104,0.22808 5.8748,1.62375 -0.4771,1.24317 -26.5296,73.83906 -31.8054,88.62625 -0.9369,2.6261 -1.2809,2.75 -7.6338,2.75 h -6.6526 z m 67.4007,-13.25 v -46.5 h 25 25 v 5 5 h -19 -19 v 14.5 14.5 h 18 18 v 4.97693 4.97692 l -17.75,0.27308 -17.75,0.27307 -0.2742,16.75 -0.2742,16.75 h 20.0242 20.0242 v 5 5 h -26 -26 z m 153.7611,5.25 -0.2611,-41.25 -14.25,-0.27746 -14.25,-0.27745 v -4.97255 -4.97254 h 34.5 34.5 v 5 5 h -14 -14 v 41.5 41.5 h -5.9889 -5.9889 z m 51.2389,-5.25 v -46.5 h 6 6 v 46.5 46.5 h -6 -6 z m 115.1667,45.56125 c 0.1833,-0.51631 7.3083,-21.45077 15.8333,-46.52102 l 15.5,-45.58228 7.4742,0.27102 7.4743,0.27103 15.7479,46 c 8.6614,25.3 15.7605,46.1125 15.7758,46.25 0.015,0.1375 -2.8515,0.25 -6.3707,0.25 h -6.3986 l -2.6133,-7.25 c -1.4372,-3.9875 -3.6616,-10.4 -4.9431,-14.25 l -2.3298,-7 -16.5798,-0.27382 -16.5798,-0.27383 -4.8028,14.52383 -4.8027,14.52382 h -6.3591 c -3.5329,0 -6.211,-0.41722 -6.0258,-0.93875 z m 51.8333,-39.00365 c 0,-0.51831 -2.1775,-7.15581 -4.8388,-14.75 -2.6613,-7.59418 -5.6828,-16.95476 -6.7144,-20.80129 l -1.8756,-6.99368 -0.9207,3.49368 c -0.8292,3.1463 -11.2415,35.70058 -12.3919,38.74369 -0.3637,0.96191 2.6635,1.25 13.1344,1.25 7.8502,0 13.607,-0.39871 13.607,-0.9424 z m 117,-6.5576 v -46.5 h 6 6 v 46.5 46.5 h -6 -6 z m 129,-0.0457 v -46.54569 l 6.6417,0.29569 6.6418,0.29569 6.0005,9.5 c 22.0017,34.83292 31.0163,49.54657 34.922,57 l 4.4541,8.5 -0.4623,-37.75 -0.4624,-37.75 h 5.6323 5.6323 v 46.5 46.5 h -5.8832 -5.8832 l -18.2249,-29.17766 c -10.0237,-16.04772 -20.4663,-33.37272 -23.2059,-38.5 -2.7396,-5.12729 -5.0535,-9.32244 -5.1419,-9.32257 -0.088,-1.3e-4 0,17.32487 0.1876,38.5 l 0.3485,38.50024 h -5.5985 -5.5985 z m 90,0.0457 v -46.5 h 25.5 25.5 v 5 5 h -19.5 -19.5 v 14.5 14.5 h 18 18 v 4.97693 4.97692 l -17.75,0.27308 -17.75,0.27307 v 16.5 16.5 l 20.25,0.27071 20.25,0.2707 v 4.9793 4.97929 h -26.5 -26.5 z m -2114.24995,43.4199 c -2.15755,-1.25666 -2.28372,-5.23207 -0.22039,-6.94448 1.16961,-0.97068 2.11105,-1.00455 4,-0.14388 3.05229,1.39071 3.3699,5.61669 0.53613,7.13328 -2.30203,1.23201 -2.12014,1.2339 -4.31574,-0.0449 z m 16.45,-3.1199 c -2.57337,-2.57337 -0.32308,-8.8 3.1803,-8.8 1.6787,0 4.21565,2.139 4.90452,4.1352 1.37837,3.99418 -5.04771,7.70191 -8.08482,4.6648 z m 14.50507,0.47941 c -2.23995,-0.33734 -2.67239,-0.80702 -2.1778,-2.36532 0.36729,-1.15724 -0.22177,-3.30174 -1.45507,-5.29727 -2.49373,-4.03494 -2.55236,-4.61682 -0.46521,-4.61682 1.01644,0 1.3958,0.55034 1.03231,1.4976 -0.96109,2.50454 3.22078,8.5024 5.92809,8.5024 1.69568,0 2.2061,0.42671 1.79424,1.5 -0.31659,0.825 -0.86496,1.43258 -1.21862,1.35017 -0.35365,-0.0824 -1.90073,-0.33925 -3.43794,-0.57076 z m 18.29493,-1.19719 c 0,-0.56697 -1.39182,-1.7506 -3.09293,-2.63028 -3.88656,-2.00981 -3.31649,-2.81021 0.87476,-1.22819 2.82637,1.06684 3.41026,0.94442 5.68406,-1.1917 l 2.53411,-2.38068 v 2.45871 c 0,1.67142 -0.96061,3.02615 -3,4.23085 -1.65,0.97468 -3,1.30826 -3,0.74129 z m -16.55297,-6.14076 c -2.00668,-2.21734 -1.39172,-4.3122 1.8698,-6.36951 3.56127,-2.2464 7.44447,3.60089 4.63749,6.98309 -1.69416,2.04133 -4.32951,1.79284 -6.50729,-0.61358 z m -50.87175,-0.85827 c -2.94064,-3.24938 0.75781,-7.92741 4.67472,-5.91288 3.07354,1.58078 1.64093,7.82969 -1.79501,7.82969 -0.62976,0 -1.92563,-0.86257 -2.87971,-1.91681 z m 65.09139,-0.74986 c -1.2319,-1.23189 -0.68122,-5.07637 0.91715,-6.4029 3.11745,-2.58725 7.02399,2.42735 4.37631,5.61761 -1.25404,1.51103 -4.13964,1.93911 -5.29346,0.78529 z m -53.09139,-3.25014 c -2.48794,-2.74915 -0.51931,-6.32766 3.24198,-5.89312 3.02082,0.34899 4.20436,3.87402 2.13706,6.36497 -1.6289,1.9627 -3.30919,1.8153 -5.37904,-0.47185 z m 13.62472,-1.28319 c -0.66,-0.66 -1.2,-2.145 -1.2,-3.3 0,-1.155 0.54,-2.64 1.2,-3.3 0.66,-0.66 2.145,-1.2 3.3,-1.2 1.155,0 2.64,0.54 3.3,1.2 0.66,0.66 1.2,2.145 1.2,3.3 0,1.155 -0.54,2.64 -1.2,3.3 -0.66,0.66 -2.145,1.2 -3.3,1.2 -1.155,0 -2.64,-0.54 -3.3,-1.2 z m 11.8,0.14098 c 0,-0.58246 0.45,-0.7809 1,-0.44098 0.55,0.33992 1,0.81648 1,1.05902 0,0.24254 -0.45,0.44098 -1,0.44098 -0.55,0 -1,-0.47656 -1,-1.05902 z m 22.54139,-1.69372 c -0.78334,-2.04135 -0.75798,-2.0774 1.70861,-2.42771 1.50993,-0.21444 2.90784,-1.70554 4.25,-4.53331 2.45587,-5.17423 3.5,-5.39117 3.5,-0.72722 0,1.95746 -0.41363,3.30338 -0.91918,2.99093 -0.50555,-0.31245 -2.51193,0.93406 -4.45862,2.77003 -2.63464,2.48478 -3.67782,2.97746 -4.08081,1.92728 z m -53.40354,-2.16206 c -1.10602,-0.68356 -1.03891,-1.30657 0.37284,-3.46117 1.63771,-2.49946 1.63697,-3.88747 -0.004,-7.87403 -0.59317,-1.44086 -0.18348,-1.75 2.31916,-1.75 2.16865,0 3.22281,-0.57723 3.67899,-2.01452 0.35166,-1.10799 1.05533,-1.75745 1.56372,-1.44325 0.52295,0.3232 0.22116,1.93107 -0.695,3.70273 -1.24793,2.41322 -1.36177,3.54391 -0.49634,4.92968 1.64325,2.63126 1.37946,3.82536 -0.84505,3.82536 -1.08244,0 -2.54794,1.10673 -3.25668,2.4594 -0.88416,1.68748 -1.71195,2.19776 -2.63741,1.6258 z m 34.06215,-0.2852 c -3.46054,-3.46054 1.36897,-10.17141 5.66522,-7.87213 4.54901,2.43456 3.30492,9.07213 -1.7004,9.07213 -1.52065,0 -3.30482,-0.54 -3.96482,-1.2 z m 11.8,-0.8 c 0,-0.55 0.42344,-1 0.94098,-1 0.51754,0 1.2191,0.45 1.55902,1 0.33992,0.55 -0.0835,1 -0.94098,1 -0.85746,0 -1.55902,-0.45 -1.55902,-1 z m 20.66667,-1.66667 c -1.08655,-1.08654 -0.76018,-4.83982 0.53333,-6.13333 3.27357,-3.27357 7.77292,1.71785 4.78922,5.31299 -1.27851,1.54051 -4.15851,1.98439 -5.32255,0.82034 z m -74.59274,-3.19519 c -1.28082,-2.39323 0.82369,-5.49988 3.38498,-4.99688 2.80196,0.55026 4.1953,3.36554 2.61066,5.27492 -1.77536,2.13917 -4.77647,2 -5.99564,-0.27804 z m 57.34011,0.49846 c -0.31471,-0.82013 -0.42412,-2.53637 -0.24312,-3.81387 0.27276,-1.9252 0.9281,-2.32273 3.82908,-2.32273 3.33333,0 3.5,0.16667 3.5,3.5 0,3.21932 -0.26118,3.52517 -3.25688,3.81387 -2.18406,0.21048 -3.44535,-0.17731 -3.82908,-1.17727 z m -38.74737,-1.30327 c -1.16112,-1.16111 -0.72064,-5.04365 0.70658,-6.22814 3.00479,-2.49375 7.12055,2.38996 4.58692,5.4428 -1.25408,1.51107 -4.13967,1.93918 -5.2935,0.78534 z m 13.92949,-3.63936 c -3.74977,-2.74189 0.23634,-9.54247 4.15384,-7.08673 2.46343,1.54424 2.82811,5.49686 0.65384,7.08673 -0.98235,0.71832 -2.06408,1.30603 -2.40384,1.30603 -0.33976,0 -1.42149,-0.58771 -2.40384,-1.30603 z m 19.42608,0.36075 c -0.0122,-0.79491 1.14755,-2.66628 2.57729,-4.15861 2.11386,-2.20639 2.47225,-3.29281 1.91828,-5.815 -0.37468,-1.70593 -1.33009,-3.75053 -2.12313,-4.54358 -1.25586,-1.25586 -1.18081,-1.58162 0.58171,-2.52489 1.82312,-0.97571 2.02361,-0.78483 2.02361,1.9265 0,2.32122 0.67475,3.35843 2.95034,4.53518 1.62269,0.83912 3.64769,1.52568 4.5,1.52568 0.88299,0 1.54966,0.8604 1.54966,2 0,1.73333 -0.66667,2 -5,2 -2.75,0 -5.01001,0.3375 -5.02224,0.75 -0.0453,1.52713 -3.93316,5.75824 -3.95552,4.30472 z m 16.95318,-3.58433 c -1.90407,-2.29428 0.33182,-6.71296 3.18213,-6.28867 3.43731,0.51166 4.60467,3.31855 2.39542,5.75974 -2.21806,2.45094 -3.85369,2.60604 -5.57755,0.52893 z m -68.97542,-1.41137 c 0,-0.51754 0.48646,-1.24164 1.08103,-1.6091 0.59456,-0.36746 0.82276,-1.6971 0.50711,-2.95476 -0.35966,-1.43299 -0.0718,-2.47931 0.771,-2.80273 0.92307,-0.35422 1.33456,0.31878 1.31194,2.14574 -0.0181,1.46401 0.32161,3.44933 0.75497,4.41183 0.63964,1.42064 0.29728,1.75 -1.81906,1.75 -1.43385,0 -2.60699,-0.42344 -2.60699,-0.94098 z m 25.31885,-0.67049 c -0.34011,-0.8863 0.083,-2.79883 0.94029,-4.25006 1.395,-2.36157 1.40026,-2.94092 0.05,-5.51789 -1.25459,-2.39447 -1.28134,-3.02054 -0.15889,-3.71815 1.02015,-0.63403 1.53038,0.19029 2.08967,3.37601 0.40698,2.31818 1.16331,4.35598 1.68073,4.52846 0.85889,0.28629 -2.55064,7.1931 -3.55085,7.1931 -0.23794,0 -0.71088,-0.72516 -1.05099,-1.61147 z m 20.0897,-0.76625 c -0.87545,-2.2814 -0.10946,-4.78139 1.84145,-6.00998 2.56521,-1.61545 5.25,0.42841 5.25,3.99669 0,2.53199 -0.40445,2.92999 -3.25688,3.20488 -2.19612,0.21165 -3.44502,-0.17645 -3.83457,-1.19159 z m -38.47812,-1.2061 c -1.56656,-1.88759 -0.20138,-4.72251 2.53297,-5.25996 2.54447,-0.50013 3.8848,1.32029 3.14433,4.27056 -0.73908,2.94473 -3.63558,3.44951 -5.6773,0.9894 z m 10.73624,-2.08285 c -1.33011,-1.33011 -0.62397,-5.28581 1.10915,-6.21335 3.69847,-1.97936 7.00976,2.69444 4.02418,5.68002 -1.30743,1.30743 -4.072,1.59466 -5.13333,0.53333 z m 16.57187,-2.99943 c -0.6938,-0.27951 -1.74217,-1.40642 -2.3297,-2.50424 -0.83247,-1.55549 -0.68538,-2.4191 0.66644,-3.91285 0.95408,-1.05424 2.30781,-1.91681 3.00828,-1.91681 1.68147,0 4.41644,2.78671 4.41644,4.5 0,1.44531 -2.6863,4.55312 -3.82143,4.42105 -0.37321,-0.0434 -1.24623,-0.30764 -1.94003,-0.58715 z m 39.01146,-0.69381 c -1.24564,-0.61692 -2.25,-2.03482 -2.25,-3.17642 0,-1.77102 0.49807,-2.00392 3.52885,-1.6501 2.70157,0.3154 3.28361,0.70748 2.48275,1.67246 -0.57536,0.69326 -0.7652,1.99251 -0.42186,2.88722 0.70167,1.82855 -0.0631,1.88965 -3.33974,0.26684 z m -12.58333,-0.30676 c -1.40457,-1.40457 -0.58283,-5.30783 1.33333,-6.33333 3.81302,-2.04067 7.01918,1.18048 5.39301,5.41821 -0.603,1.57139 -5.41536,2.22611 -6.72634,0.91512 z m -17.66667,-3.62865 c 0,-2.36707 -0.60103,-3.96581 -1.75,-4.65499 -1.65551,-0.99301 -1.65053,-1.10916 0.0923,-2.15102 1.45021,-0.86695 1.70659,-1.82463 1.20469,-4.5 -0.43369,-2.31164 -0.25858,-3.39867 0.54745,-3.39867 0.65179,0 1.70045,-0.70482 2.33036,-1.56627 1.02316,-1.39926 1.33536,-1.35623 2.9279,0.4035 1.72744,1.9088 1.68767,2.02585 -1.28504,3.78188 -2.65533,1.56853 -3.06766,2.3813 -3.06766,6.04681 0,2.7706 0.53165,4.53223 1.53773,5.09526 1.33446,0.7468 1.26836,1.10433 -0.5,2.70467 -2.01451,1.82311 -2.03773,1.80304 -2.03773,-1.76117 z m -41.69053,0.6594 c -0.84148,-2.19286 0.963,-4.86408 3.28582,-4.86408 2.44243,0 2.95126,2.81059 0.88323,4.87862 -2.06163,2.06164 -3.3741,2.05706 -4.16905,-0.0145 z m 7.58958,-0.74244 c 0.80656,-0.97185 0.84688,-2.15969 0.13672,-4.02754 -0.92294,-2.42753 -0.84655,-2.5632 0.91303,-1.6215 1.26608,0.67759 2.78802,0.69776 4.4675,0.0592 2.08623,-0.79318 2.73153,-0.62412 3.56547,0.93412 1.34952,2.52161 1.28622,3.03406 -0.37478,3.03406 -0.76616,0 -1.65203,0.675 -1.96862,1.5 -0.36632,0.95462 -1.90407,1.5 -4.22943,1.5 -2.99116,0 -3.44636,-0.24998 -2.50989,-1.37836 z m 39.6658,-3.54998 c -2.11638,-2.33857 -1.32522,-5.69555 1.55797,-6.61064 2.14071,-0.67944 5.87718,1.88838 5.87718,4.03898 0,1.40478 -3.21474,4.5 -4.67375,4.5 -0.55895,0 -1.80158,-0.86775 -2.7614,-1.92834 z m 32.18515,1.17095 c -2.06077,-0.45838 -2.38779,-4.24261 -0.36663,-4.24261 0.76085,0 1.643,0.99285 1.96034,2.20633 0.67122,2.56676 0.68901,2.54403 -1.59371,2.03628 z m -8.01058,-1.36856 c -2.43285,-1.36149 -2.27042,-4.87405 0.2254,-4.87405 2.54962,0 4.48303,3.38343 2.75359,4.81874 -0.81582,0.67707 -1.83417,0.69598 -2.97899,0.0553 z m -51.25096,-1.25883 c -2.03578,-1.4886 -1.66559,-4.47443 0.74278,-5.99109 2.34341,-1.47574 5.2407,1.31357 4.33347,4.17198 -0.83439,2.62894 -2.93787,3.38273 -5.07625,1.81911 z m 7.51154,0.38478 c 0,-0.55 0.47656,-1 1.05902,-1 0.58246,0 0.7809,0.45 0.44098,1 -0.33992,0.55 -0.81648,1 -1.05902,1 -0.24254,0 -0.44098,-0.45 -0.44098,-1 z m 29.78699,-2.99798 c -0.41764,-2.84553 -0.34731,-2.91409 1.38297,-1.34821 1.38522,1.25361 1.55429,1.97352 0.70406,2.99798 -1.51761,1.82862 -1.58424,1.77595 -2.08703,-1.64977 z m 7.21301,0.99798 c 0,-0.55 0.70156,-1 1.55902,-1 0.85746,0 1.2809,0.45 0.94098,1 -0.33992,0.55 -1.04148,1 -1.55902,1 -0.51754,0 -0.94098,-0.45 -0.94098,-1 z m 19.34423,-0.0558 c -0.74102,-0.74102 -0.17591,-3.24726 1.89558,-8.40685 2.47838,-6.17305 3.96494,-8.24651 9.27638,-12.93868 7.78257,-6.87519 9.88774,-11.63922 6.59726,-14.92969 -1.70271,-1.70269 -2.11345,-1.80608 -2.11345,-0.53199 0,2.05936 -6.86716,9.8338 -11.42543,12.93494 -1.96293,1.33544 -5.63217,5.41265 -8.15387,9.06046 l -4.58492,6.63239 -2.89801,-1.44571 c -1.59391,-0.79515 -3.18626,-1.91212 -3.53857,-2.48216 -0.41392,-0.66974 0.0828,-0.64931 1.40395,0.0577 1.82977,0.97926 2.56185,0.38291 6.97001,-5.67777 2.70903,-3.72457 7.27392,-8.55956 10.14421,-10.74442 5.46572,-4.16048 8.38007,-8.0813 9.48168,-12.75614 0.5468,-2.32045 -0.10924,-3.72304 -3.9423,-8.42853 -10.37306,-12.73402 -11.28152,-20.76197 -2.64236,-23.35032 5.54798,-1.66222 10.39991,0.60211 13.24654,6.18196 l 2.17876,4.27072 1.50531,-2.94507 c 3.74257,-7.32215 8.32199,-8.53193 13.33192,-3.522 6.23801,6.238 2.94155,15.49936 -8.66702,24.34989 -5.29065,4.03366 -5.52247,4.4002 -5.06749,8.01249 0.84606,6.71728 -0.98427,10.53637 -8.41739,17.56333 -5.69068,5.37974 -7.34078,7.69682 -9.49385,13.33134 -2.66097,6.96368 -3.2359,7.61514 -5.08694,5.7641 z m 18.65069,-56.9442 c -2.08631,-10.95975 -6.23968,-15.08011 -12.06066,-11.96481 -4.26046,2.28012 -1.21031,9.68093 7.93902,19.2631 l 3.62672,3.79829 0.67577,-3.29829 c 0.37167,-1.81406 0.29029,-5.32329 -0.18085,-7.79829 z m 10.25803,6.58212 c 6.40038,-6.13264 8.2588,-9.93243 6.69925,-13.69753 -1.53441,-3.70438 -5.46931,-4.88938 -7.49064,-2.25583 -2.92643,3.81282 -6.80884,20.37124 -4.77638,20.37124 0.52636,0 3.03186,-1.98805 5.56777,-4.41788 z m -111.35787,48.16788 c 0.92269,-2.49937 4.10492,-3.68029 4.10492,-1.52332 0,1.72203 -1.99391,3.77332 -3.66778,3.77332 -0.89417,0 -1.02299,-0.66305 -0.43714,-2.25 z m 31.94006,1.50851 c -2.2069,-0.4936 -3.1543,-3.16901 -1.72995,-4.88526 1.52103,-1.83272 5.53573,-1.75139 6.25644,0.12675 1.19877,3.12396 -1.0877,5.52764 -4.52649,4.75851 z m -24.16847,-0.92518 c -1.29487,-1.29486 -0.64116,-3.27661 1.44999,-4.39577 1.69677,-0.90808 2.44068,-0.80375 3.75,0.52594 1.51205,1.53556 1.4892,1.76558 -0.30779,3.09762 -2.09809,1.55523 -3.83502,1.8294 -4.8922,0.77221 z m 50.35787,-3.28748 c -0.90139,-1.68426 -0.79427,-2.19698 0.56826,-2.71983 2.02606,-0.77748 4.9072,0.85648 4.9072,2.78297 0,2.31318 -4.2298,2.2644 -5.47546,-0.0631 z m 13.97546,-0.54585 c -1.29175,-1.375 -1.89863,-2.5 -1.34863,-2.5 0.55,0 2.05688,1.125 3.34863,2.5 1.29175,1.375 1.89863,2.5 1.34863,2.5 -0.55,0 -2.05688,-1.125 -3.34863,-2.5 z m -6,0.32874 c 0,-0.64419 -0.74474,-1.99419 -1.65499,-3 -1.55409,-1.71725 -1.52517,-1.82874 0.47432,-1.82874 1.35449,0 2.69383,1.09166 3.68067,3 1.47719,2.85658 1.45452,3 -0.47432,3 -1.11412,0 -2.02568,-0.52707 -2.02568,-1.17126 z m -41,-0.24773 c 0,-0.43624 1.10694,-1.66389 2.45987,-2.72811 2.13554,-1.67981 2.31215,-2.25915 1.33949,-4.39392 -0.657,-1.44195 -1.96392,-2.45898 -3.15988,-2.45898 -1.37644,0 -1.71031,-0.32917 -1.02698,-1.0125 0.55687,-0.55688 2.45409,-0.72418 4.21604,-0.37179 2.40875,0.48175 2.94718,0.9496 2.17025,1.88575 -0.56831,0.68477 -0.78895,1.88179 -0.49031,2.66005 0.30381,0.79171 -0.7898,2.69189 -2.48275,4.31384 -1.66415,1.59436 -3.02573,2.54191 -3.02573,2.10566 z m 28,-0.58101 c 0,-0.55 0.45,-1 1,-1 0.55,0 1,0.45 1,1 0,0.55 -0.45,1 -1,1 -0.55,0 -1,-0.45 -1,-1 z m -48.13922,-3.03327 c 1.29844,-1.0817 2.87344,-1.95176 3.5,-1.93346 0.62657,0.0183 0.0769,0.9183 -1.22156,2 -1.29844,1.0817 -2.87344,1.95176 -3.5,1.93346 -0.62657,-0.0183 -0.0769,-0.9183 1.22156,-2 z m 8.87223,0.65963 c -3.42788,-1.26907 -3.04051,-2.87922 0.88586,-3.68225 2.59978,-0.53171 2.96385,-0.32743 2.92524,1.64132 -0.0587,2.99029 -0.5443,3.25036 -3.8111,2.04093 z m 7.33129,-0.56546 c -1.18984,-0.7529 -1.21168,-1.17839 -0.12755,-2.48468 1.84702,-2.22553 5.06325,-2.0243 5.06325,0.31679 0,1.04116 -0.7118,2.16616 -1.58179,2.5 -1.91809,0.73604 -1.61907,0.76565 -3.35391,-0.33211 z m 26.60237,-0.72757 c -1.39882,-1.39881 -0.63133,-4.33333 1.13333,-4.33333 2.10574,0 4.2,1.84494 4.2,3.7 0,1.3353 -4.13977,1.8269 -5.33333,0.63333 z m -12.56239,-1.24772 c -2.08518,-1.32032 -0.52486,-4.08561 2.30532,-4.08561 3.02826,0 4.17482,1.59089 2.55405,3.5438 -1.37503,1.6568 -2.84043,1.82019 -4.85937,0.54181 z m 19.89572,-0.25687 c 0,-0.64419 -0.74474,-1.99419 -1.65499,-3 -2.48873,-2.75002 0.28177,-2.32057 3.726,0.57756 2.29623,1.93215 2.55487,2.52329 1.31257,3 -2.33885,0.8975 -3.38358,0.71917 -3.38358,-0.57756 z m 6.22814,-1.51511 c -3.42523,-1.65889 -4.41964,-3.44618 -1.47814,-2.65671 2.21833,0.59538 5.74851,3.17791 5.15514,3.77128 -0.24688,0.24687 -1.90153,-0.25468 -3.677,-1.11457 z m -45.67814,-2.24287 c 0.5225,-0.51108 2.3,-1.21674 3.95,-1.56813 2.8522,-0.60741 2.90437,-0.56163 1.05887,0.92924 -2.0735,1.67507 -6.66723,2.26101 -5.00887,0.63889 z m 26.40067,-1.6302 c -1.29634,-1.56199 -0.54289,-1.72786 2.47622,-0.54514 1.66146,0.65087 1.70597,0.83962 0.32311,1.37027 -0.88208,0.33849 -2.14177,-0.0328 -2.79933,-0.82513 z m 4.29933,-1.47172 c -1.2375,-0.49742 -2.25,-1.14389 -2.25,-1.43662 0,-1.09839 3.69081,-0.47695 5.55887,0.93598 2.2655,1.71353 0.40789,1.99459 -3.30887,0.50064 z m -16.25,-0.96884 c 1.96287,-1.2685 5.71602,-1.2685 6.5,0 0.37598,0.60835 -1.0696,0.994 -3.69098,0.98469 -3.15059,-0.0112 -3.90576,-0.27592 -2.80902,-0.98469 z m 23.50708,0.0114 c -0.35034,-0.56686 0.0511,-0.7345 0.94098,-0.39301 1.73242,0.66479 2.04939,1.38156 0.61096,1.38156 -0.51754,0 -1.21592,-0.44485 -1.55194,-0.98855 z"
       id="path1" />
  </g>
</svg>
